<svg width="240" height="155" viewBox="0 0 240 155" fill="none" xmlns="http://www.w3.org/2000/svg">
<g id="Group">
<g id="Group_2">
<path id="Vector" d="M152.608 110.124C155.257 113.495 159.937 115.136 164.106 114.157C168.275 113.179 171.736 109.627 172.594 105.414C173.196 102.509 172.684 99.2734 174.264 96.7601C175.228 95.21 176.838 94.2016 178.403 93.2686C195.304 83.1552 213.709 75.5552 233.003 70.6641C231.227 67.3833 231.588 63.35 232.567 59.7531C233.259 57.1646 234.252 54.6513 235.486 52.2885C236.901 49.5796 238.677 47.0061 238.948 43.7554C209.947 31.4599 181.91 16.8768 155.197 0.322266C151.464 2.8807 146.964 4.06962 142.495 4.792C138.025 5.51438 133.48 5.80033 129.071 6.77855C122.99 8.13302 117.257 10.7516 111.809 13.9271C104.72 17.6143 98.0232 22.2345 92.7709 28.2393C87.5186 34.2441 83.7562 41.7388 82.8683 49.5947C76.2916 49.399 69.7149 49.3689 63.1383 49.5194C60.3089 49.5796 57.4646 49.6849 54.6804 50.1665C44.5069 51.9123 35.8383 58.5341 28.7349 66.1041C23.2719 70.5136 19.2386 76.398 14.7689 81.8008C10.4948 86.9628 5.76921 91.7485 0.652344 96.128C2.14225 98.1747 3.45157 100.357 4.58029 102.614C4.61039 102.659 4.64049 102.72 4.70068 102.705C4.74583 102.69 4.68563 102.599 4.67059 102.644C6.17554 103.021 7.43971 103.999 8.82427 104.691C9.39616 104.992 9.99814 105.233 10.6001 105.489C12.075 106.136 13.5348 106.843 14.7689 107.581C38.773 118.567 59.0899 136.024 79.9185 152.805C102.493 136.28 126.813 121.998 152.608 110.124Z" fill="white"/>
</g>
<g id="Group_3">
<path id="Vector_2" d="M80.0464 154.854C79.6401 154.854 79.2488 154.718 78.9177 154.462C55.7714 135.831 31.8275 116.583 3.98576 104.874C3.06773 104.483 2.63129 103.429 3.02258 102.511C3.41387 101.593 4.46734 101.157 5.38537 101.548C33.2422 113.257 57.0807 132.264 80.0915 150.775C101.989 134.552 126.143 120.194 151.908 108.08C152.676 107.718 153.579 107.944 154.09 108.606C156.333 111.496 160.517 112.85 164.038 111.827C167.56 110.804 170.359 107.417 170.705 103.775C170.765 103.143 170.765 102.451 170.765 101.729C170.765 99.7872 170.78 97.59 172.03 95.6637C172.963 94.2189 174.407 93.3009 175.461 92.6387C193.34 81.2913 212.889 73.1946 233.552 68.6045C234.515 68.3938 235.494 68.9958 235.704 69.974C235.915 70.9522 235.313 71.9154 234.335 72.1261C214.063 76.6259 194.905 84.5571 177.387 95.6787C176.349 96.3409 175.521 96.8977 175.054 97.6201C174.377 98.6585 174.377 100.148 174.377 101.729C174.377 102.496 174.377 103.294 174.287 104.107C173.79 109.238 169.998 113.829 165.031 115.273C160.547 116.568 155.475 115.198 152.209 111.902C126.67 124.002 102.756 138.329 81.1149 154.477C80.8139 154.733 80.4377 154.854 80.0464 154.854Z" fill="#429777"/>
</g>
<g id="Group_4">
<path id="Vector_3" d="M166.276 106.952C166.065 106.952 165.885 106.801 165.84 106.59C163.688 95.6645 166.517 83.9107 173.41 75.1669C180.302 66.4231 191.063 60.93 202.199 60.4785C202.44 60.4785 202.651 60.6591 202.666 60.915C202.681 61.1708 202.485 61.3665 202.23 61.3815C191.364 61.8179 180.844 67.1756 174.117 75.7238C167.375 84.2719 164.606 95.7397 166.713 106.41C166.758 106.651 166.607 106.891 166.351 106.937C166.336 106.952 166.306 106.952 166.276 106.952Z" fill="#429777"/>
</g>
<g id="Group_5">
<path id="Vector_4" d="M214.241 60.2815C213.654 60.2815 213.082 60.2665 212.495 60.2364C212.239 60.2213 212.059 60.0106 212.059 59.7698C212.074 59.529 212.254 59.3033 212.525 59.3334C219.96 59.6645 227.62 57.7984 234.061 54.051C234.272 53.9306 234.558 53.9908 234.678 54.2165C234.799 54.4272 234.723 54.7132 234.513 54.8336C228.433 58.3702 221.299 60.2815 214.241 60.2815Z" fill="#429777"/>
</g>
<g id="Group_6">
<path id="Vector_5" d="M168.031 105.367H168.016C167.76 105.352 167.58 105.142 167.595 104.901C168.392 89.0234 179.484 74.4705 194.579 69.4891C194.819 69.4138 195.075 69.5342 195.15 69.775C195.226 70.0158 195.105 70.2716 194.864 70.3469C180.116 75.2079 169.28 89.4448 168.498 104.946C168.467 105.187 168.272 105.367 168.031 105.367Z" fill="#429777"/>
</g>
<g id="Group_7">
<path id="Vector_6" d="M219.872 65.9714C219.661 65.9714 219.48 65.836 219.435 65.6253C219.375 65.3845 219.525 65.1437 219.781 65.0835C223.438 64.2558 227.487 63.1271 231.49 61.8178C231.731 61.7425 231.986 61.878 232.062 62.1037C232.137 62.3445 232.002 62.6003 231.776 62.6756C227.742 63.9849 223.664 65.1287 219.992 65.9564C219.947 65.9715 219.917 65.9714 219.872 65.9714Z" fill="#429777"/>
</g>
<g id="Group_8">
<path id="Vector_7" d="M169.924 103.743C169.894 103.743 169.864 103.743 169.833 103.728C169.593 103.683 169.427 103.442 169.472 103.202C170.887 95.5112 176.335 88.1369 184.386 82.9749C191.806 78.2042 200.234 74.3365 208.12 72.064C211.31 71.146 214.23 70.4537 217.044 69.7915C221.393 68.7681 225.908 67.6996 231.492 65.7431C231.732 65.6528 231.988 65.7883 232.064 66.014C232.154 66.2548 232.018 66.5107 231.793 66.5859C226.149 68.5574 221.634 69.626 217.255 70.6644C214.456 71.3266 211.551 72.0188 208.375 72.9218C200.58 75.1642 192.242 79.0018 184.883 83.7274C177.027 88.769 171.745 95.9176 170.36 103.367C170.315 103.593 170.134 103.743 169.924 103.743Z" fill="#429777"/>
</g>
<g id="Group_9">
<path id="Vector_8" d="M200.952 69.1753C200.741 69.1753 200.545 69.0248 200.515 68.7991C200.47 68.5583 200.636 68.3175 200.891 68.2874C203.329 67.881 205.572 67.565 207.724 67.249C209.876 66.9329 212.118 66.6169 214.541 66.2105C214.797 66.1654 215.023 66.3309 215.053 66.5868C215.098 66.8276 214.933 67.0684 214.677 67.0985C212.239 67.5048 209.996 67.8208 207.844 68.1369C205.692 68.4529 203.45 68.769 201.027 69.1753C200.997 69.1753 200.982 69.1753 200.952 69.1753Z" fill="#429777"/>
</g>
<g id="Group_10">
<path id="Vector_9" d="M117.958 112.348C117.822 112.348 117.702 112.288 117.611 112.183C117.446 111.987 117.476 111.701 117.672 111.55C122.819 107.231 129.591 106.253 137.281 105.501C140.276 105.2 143.376 104.899 146.461 105.215C151.578 105.726 156.274 107.878 160.819 109.955C161.044 110.061 161.15 110.331 161.044 110.557C160.939 110.783 160.668 110.888 160.443 110.783C155.973 108.736 151.338 106.629 146.371 106.118C143.376 105.817 140.321 106.118 137.371 106.404C129.847 107.141 123.21 108.104 118.258 112.258C118.168 112.318 118.063 112.348 117.958 112.348Z" fill="#429777"/>
</g>
<g id="Group_11">
<path id="Vector_10" d="M75.0239 143.397C74.8283 143.397 74.6326 143.261 74.5875 143.05C74.5273 142.81 74.6778 142.569 74.9186 142.509C82.2929 140.658 88.4181 135.465 93.9262 130.138C94.6486 129.431 95.386 128.723 96.1084 128.001C100.879 123.32 105.83 118.474 111.865 115.404C112.091 115.299 112.362 115.374 112.467 115.6C112.573 115.826 112.497 116.097 112.272 116.202C106.342 119.197 101.466 123.998 96.7254 128.633C96.0031 129.355 95.2656 130.063 94.5433 130.77C88.9448 136.188 82.7143 141.47 75.1293 143.366C75.0992 143.382 75.0691 143.397 75.0239 143.397Z" fill="#429777"/>
</g>
<g id="Group_12">
<path id="Vector_11" d="M104.646 129.613C104.525 129.613 104.405 129.568 104.315 129.462C104.149 129.282 104.164 128.996 104.345 128.83C115.165 119.003 129.071 111.884 144.587 108.272C146.544 107.821 148.831 107.339 151.089 107.535C153.572 107.746 155.739 108.784 157.033 110.409C157.184 110.605 157.154 110.891 156.958 111.042C156.762 111.192 156.476 111.162 156.326 110.966C155.182 109.537 153.241 108.619 150.998 108.423C148.876 108.242 146.769 108.679 144.783 109.145C129.432 112.727 115.662 119.755 104.947 129.492C104.871 129.583 104.766 129.613 104.646 129.613Z" fill="#429777"/>
</g>
<g id="Group_13">
<path id="Vector_12" d="M78.0997 147.614C77.9342 147.614 77.7686 147.524 77.6934 147.358C77.588 147.132 77.6934 146.862 77.9191 146.756C86.1814 142.949 93.7513 137.862 100.403 131.661C100.584 131.496 100.87 131.496 101.035 131.676C101.201 131.857 101.201 132.143 101.02 132.309C94.2931 138.584 86.6479 143.716 78.3104 147.569C78.2201 147.599 78.1599 147.614 78.0997 147.614Z" fill="#429777"/>
</g>
<g id="Group_14">
<path id="Vector_13" d="M158.636 111.63C156.845 111.63 155.175 110.923 154.197 109.674C154.046 109.478 154.076 109.192 154.272 109.042C154.468 108.891 154.754 108.922 154.904 109.117C155.912 110.381 157.794 110.983 159.705 110.637C161.646 110.291 163.347 109.117 164.611 108.124C167.531 105.851 171.218 102.074 172.196 96.9721C172.241 96.7313 172.482 96.5658 172.723 96.6109C172.964 96.6561 173.129 96.8969 173.084 97.1377C172.046 102.51 168.208 106.468 165.168 108.831C163.828 109.87 162.007 111.119 159.87 111.51C159.449 111.6 159.043 111.63 158.636 111.63Z" fill="#429777"/>
</g>
<g id="Group_15">
<path id="Vector_14" d="M71.2976 141.172C71.1922 141.172 71.0718 141.126 70.9966 141.051C50.5442 122.465 23.4549 105.399 0.293613 96.5496C0.143117 96.4894 0.0377695 96.354 0.00767029 96.2035C-0.0224289 96.053 0.0377695 95.8874 0.158166 95.782C8.90198 88.3927 14.0339 82.0869 18.9852 75.9768C24.3429 69.37 29.4146 63.1395 38.3992 56.7133C50.2282 48.2554 62.3581 48.6317 76.4295 49.0681C78.3709 49.1283 80.3424 49.1885 82.3741 49.2337C83.8339 39.4364 89.1765 29.895 96.7314 23.6343C108.861 13.5812 121.006 7.5463 132.82 5.7253C134.536 5.45441 136.312 5.2738 138.027 5.07816C143.807 4.46112 149.781 3.814 155.124 0.202102C155.274 0.0967546 155.47 0.0967399 155.62 0.187037C181.024 15.944 209.317 30.4819 239.733 43.4095C239.868 43.4697 239.958 43.575 239.988 43.7105C240.019 43.8459 239.988 43.9964 239.913 44.1017C235.188 50.1065 227.347 51.8824 219.054 53.2971L205.57 55.6147C196.269 57.21 185.72 59.0159 177.232 64.494C169.767 69.3249 164.123 77.0152 161.746 85.5784C159.488 93.7353 160.692 102.178 164.951 108.183C165.057 108.333 165.057 108.544 164.951 108.695C164.846 108.845 164.65 108.92 164.47 108.875C160.391 107.792 156.433 106.046 152.611 104.36C147.313 102.028 141.835 99.6046 136.041 99.0027C126.605 98.0094 116.1 101.952 106.438 110.079C100.81 114.82 98.1009 118.326 95.708 121.427C94.5492 122.932 93.4355 124.361 92.0961 125.806C91.5995 126.333 91.0878 126.905 90.5611 127.492C86.2719 132.247 80.4026 138.779 71.3879 141.126C71.3728 141.172 71.3427 141.172 71.2976 141.172ZM1.33203 95.9777C24.3579 104.917 51.1311 121.818 71.433 140.224C80.0414 137.891 85.5195 131.811 89.929 126.92C90.4557 126.333 90.9674 125.761 91.464 125.219C92.7734 123.804 93.872 122.39 95.0157 120.9C97.4387 117.769 100.178 114.218 105.882 109.417C115.724 101.125 126.484 97.1215 136.161 98.1298C142.091 98.7468 147.644 101.2 153.002 103.563C156.418 105.068 159.94 106.633 163.552 107.701C159.699 101.561 158.691 93.3139 160.888 85.3527C163.311 76.5788 169.105 68.6928 176.75 63.7565C185.389 58.1731 196.029 56.3521 205.42 54.7418L218.904 52.4242C226.805 51.0697 234.27 49.3992 238.83 44.0114C208.67 31.1741 180.603 16.7416 155.395 1.10506C149.932 4.70192 143.942 5.34906 138.133 5.98114C136.432 6.16173 134.671 6.35738 132.971 6.61322C121.322 8.41917 109.328 14.3788 97.3183 24.3266C89.8387 30.527 84.5563 40.0383 83.2169 49.7453C83.1868 49.9711 82.9911 50.1667 82.7654 50.1366C80.5982 50.0915 78.4913 50.0313 76.4145 49.9711C62.5237 49.5347 50.5141 49.1735 38.941 57.4508C30.0617 63.8017 25.0351 69.987 19.7076 76.5487C14.8165 82.5384 9.78991 88.7388 1.33203 95.9777Z" fill="#429777"/>
</g>
<g id="Group_16">
<path id="Vector_15" d="M4.41965 103.066C4.224 103.066 4.04341 102.945 3.98321 102.749C3.26083 100.402 1.95151 98.2647 0.205759 96.549C0.0251637 96.3684 0.0251637 96.0825 0.205759 95.917C0.386354 95.7514 0.672296 95.7364 0.837842 95.917C2.68894 97.738 4.0735 100.01 4.84103 102.509C4.91628 102.749 4.78084 103.005 4.54004 103.066C4.50994 103.066 4.46479 103.066 4.41965 103.066Z" fill="#429777"/>
</g>
<g id="Group_17">
<path id="Vector_16" d="M79.8678 151.664C79.6872 151.664 79.5217 151.559 79.4464 151.378C77.8211 147.21 74.8413 143.568 71.0789 141.129C70.8682 140.994 70.808 140.723 70.9434 140.512C71.0789 140.302 71.3648 140.242 71.5604 140.377C75.4884 142.905 78.5886 146.698 80.2892 151.047C80.3795 151.273 80.2591 151.544 80.0334 151.634C79.9732 151.649 79.928 151.664 79.8678 151.664Z" fill="#429777"/>
</g>
<g id="Group_18">
<path id="Vector_17" d="M232.578 70.2314C232.397 70.2314 232.231 70.126 232.156 69.9454C230.215 65.1145 231.554 59.817 233.014 56.2051C233.947 53.8724 235.151 51.6451 236.31 49.478C237.288 47.6569 238.296 45.7757 239.139 43.8644C239.244 43.6387 239.5 43.5334 239.726 43.6387C239.952 43.744 240.057 43.9999 239.952 44.2257C239.094 46.1671 238.086 48.0633 237.092 49.8993C235.949 52.0364 234.76 54.2637 233.842 56.5362C232.442 59.9826 231.163 65.0543 232.984 69.5992C233.074 69.825 232.969 70.0959 232.728 70.1862C232.698 70.2163 232.638 70.2314 232.578 70.2314Z" fill="#429777"/>
</g>
<g id="Group_19">
<path id="Vector_18" d="M164.003 108.319C163.913 108.319 163.808 108.289 163.733 108.229C138.66 89.0253 113.121 71.0862 82.5099 50.0619C82.2992 49.9265 82.2541 49.6405 82.3895 49.4298C82.5249 49.2191 82.8109 49.174 83.0216 49.3094C113.648 70.3337 139.187 88.2878 164.274 107.506C164.47 107.657 164.515 107.943 164.365 108.138C164.274 108.259 164.139 108.319 164.003 108.319Z" fill="#429777"/>
</g>
<g id="Group_20">
<path id="Vector_19" d="M149.423 74.9858C149.378 74.9858 149.332 74.9858 149.302 74.9708C149.061 74.8955 148.926 74.6547 149.001 74.4139C150.898 67.9426 155.909 62.9161 159.521 59.7105C172.042 48.5588 188.085 41.1543 204.685 38.8668C204.926 38.8367 205.166 39.0022 205.196 39.2581C205.227 39.4989 205.061 39.7397 204.805 39.7698C188.371 42.0272 172.494 49.3564 160.108 60.3877C156.586 63.5331 151.68 68.4242 149.844 74.6698C149.799 74.8654 149.618 74.9858 149.423 74.9858Z" fill="#429777"/>
</g>
<g id="Group_21">
<path id="Vector_20" d="M134.166 66.6322C134.091 66.6322 134.001 66.6172 133.926 66.572C133.715 66.4366 133.64 66.1657 133.775 65.955C145.574 46.6915 166.839 33.1619 189.278 30.6185C189.504 30.5884 189.744 30.769 189.775 31.0098C189.805 31.2506 189.624 31.4763 189.383 31.5064C167.215 34.0047 146.191 47.3838 134.543 66.4064C134.467 66.5569 134.317 66.6322 134.166 66.6322Z" fill="#429777"/>
</g>
<g id="Group_22">
<path id="Vector_21" d="M119.858 59.3448C119.798 59.3448 119.752 59.3298 119.692 59.3147C119.467 59.2244 119.346 58.9686 119.436 58.7278C121.679 52.9337 125.667 47.7265 130.678 44.0544C130.874 43.9039 131.16 43.9491 131.311 44.1447C131.461 44.3404 131.416 44.6263 131.22 44.7768C126.344 48.3436 122.461 53.4153 120.279 59.0439C120.204 59.2395 120.038 59.3448 119.858 59.3448Z" fill="#429777"/>
</g>
<g id="Group_23">
<path id="Vector_22" d="M146.95 30.3748C146.785 30.3748 146.619 30.2846 146.544 30.119C146.439 29.8933 146.529 29.6224 146.74 29.517C155.664 25.0623 165.582 23.3166 175.184 21.6461C175.424 21.601 175.665 21.7665 175.71 22.0073C175.755 22.2481 175.59 22.4889 175.349 22.534C165.823 24.2045 155.95 25.9202 147.146 30.3297C147.086 30.3598 147.011 30.3748 146.95 30.3748Z" fill="#429777"/>
</g>
<g id="Group_24">
<path id="Vector_23" d="M108.143 51.3721C108.083 51.3721 108.022 51.357 107.962 51.3269C107.736 51.2216 107.631 50.9657 107.736 50.74C109.798 46.0746 112.928 41.8306 116.766 38.4595C116.947 38.294 117.233 38.309 117.398 38.5047C117.564 38.6853 117.549 38.9712 117.353 39.1368C113.606 42.4176 110.566 46.5562 108.564 51.1012C108.474 51.2668 108.308 51.3721 108.143 51.3721Z" fill="#429777"/>
</g>
<g id="Group_25">
<path id="Vector_24" d="M135.988 22.5489C135.837 22.5489 135.687 22.4736 135.611 22.3381C135.476 22.1274 135.536 21.8565 135.747 21.7211C143.257 16.9353 148.614 16.228 156.726 15.1595L159.014 14.8585C159.254 14.8133 159.48 14.994 159.525 15.2498C159.555 15.4906 159.39 15.7163 159.134 15.7615L156.846 16.0625C148.855 17.131 143.573 17.8233 136.228 22.5037C136.153 22.5188 136.063 22.5489 135.988 22.5489Z" fill="#429777"/>
</g>
<g id="Group_26">
<path id="Vector_25" d="M72.7125 120.673C72.6222 120.673 72.5168 120.643 72.4416 120.583C72.246 120.432 72.2008 120.146 72.3513 119.951C76.8963 113.931 81.5918 107.715 87.2805 102.523C96.3253 94.2458 107.959 88.6473 120.074 86.7511C120.299 86.7059 120.555 86.8865 120.585 87.1273C120.63 87.3681 120.45 87.609 120.209 87.6391C108.275 89.5203 96.8069 95.0284 87.8975 103.185C82.269 108.332 77.6036 114.518 73.0887 120.492C72.9834 120.613 72.8479 120.673 72.7125 120.673Z" fill="#429777"/>
</g>
<g id="Group_27">
<path id="Vector_26" d="M56.6441 113.356C56.4936 113.356 56.328 113.281 56.2528 113.131C56.1324 112.92 56.2076 112.634 56.4183 112.513C61.2492 109.789 64.7558 105.229 68.142 100.82C69.3309 99.2698 70.5649 97.6746 71.8291 96.1696C80.4676 85.966 92.447 78.8625 105.54 76.1687C105.781 76.1085 106.022 76.274 106.067 76.5148C106.112 76.7556 105.962 76.9964 105.721 77.0416C92.8233 79.7054 81.0394 86.7034 72.5214 96.7415C71.2572 98.2314 70.0382 99.8116 68.8493 101.362C65.4029 105.846 61.8362 110.482 56.8548 113.281C56.7946 113.326 56.7193 113.356 56.6441 113.356Z" fill="#429777"/>
</g>
<g id="Group_28">
<path id="Vector_27" d="M42.2834 103.412C42.1028 103.412 41.9222 103.307 41.862 103.111C41.7717 102.885 41.8921 102.614 42.1329 102.539C46.9939 100.763 50.5306 96.7599 54.3231 92.1247C54.4736 91.929 54.7595 91.899 54.9552 92.0645C55.1508 92.215 55.1809 92.5009 55.0154 92.6966C51.1326 97.4522 47.5056 101.531 42.4339 103.397C42.3887 103.412 42.3285 103.412 42.2834 103.412Z" fill="#429777"/>
</g>
<g id="Group_29">
<path id="Vector_28" d="M59.7445 87.4272C59.6241 87.4272 59.5187 87.382 59.4284 87.2917C59.2478 87.1111 59.2478 86.8252 59.4284 86.6596C68.3528 77.5998 79.5798 71.0984 91.8753 67.8326C92.1161 67.7724 92.3569 67.9078 92.4322 68.1486C92.4924 68.3894 92.3569 68.6302 92.1161 68.7055C79.9711 71.9261 68.8946 78.3523 60.0755 87.2917C59.9853 87.382 59.8649 87.4272 59.7445 87.4272Z" fill="#429777"/>
</g>
<g id="Group_30">
<path id="Vector_29" d="M30.1078 95.0722C29.9573 95.0722 29.8068 94.9969 29.7165 94.8464C29.581 94.6357 29.6563 94.3497 29.867 94.2293C35.0139 91.1442 39.5288 87.2163 43.2762 82.5358L43.8631 81.7984C45.1574 80.158 46.4817 78.4725 48.3178 77.3889C48.5285 77.2685 48.8144 77.3287 48.9348 77.5544C49.0552 77.7651 48.995 78.0511 48.7693 78.1715C47.0687 79.1647 45.8045 80.7901 44.5554 82.3552L43.9684 83.0927C40.1459 87.8483 35.5557 91.8515 30.3185 94.9969C30.2583 95.042 30.183 95.0722 30.1078 95.0722Z" fill="#429777"/>
</g>
<g id="Group_31">
<path id="Vector_30" d="M56.5916 72.514C56.4712 72.514 56.3358 72.4538 56.2455 72.3635C56.0799 72.1678 56.11 71.8969 56.2906 71.7314C63.3489 65.6664 72.3636 62.0093 81.6492 61.4074C81.89 61.3773 82.1157 61.5729 82.1308 61.8287C82.1458 62.0695 81.9652 62.2953 81.7094 62.3103C72.6194 62.8973 63.8004 66.4941 56.8776 72.4237C56.8023 72.4839 56.697 72.514 56.5916 72.514Z" fill="#429777"/>
</g>
<g id="Group_32">
<path id="Vector_31" d="M93.4062 26.1161C96.5366 20.2167 101.352 14.1366 108.019 13.7303C113.377 13.3992 118.991 15.2051 123.385 18.2753C132.731 24.7917 140.737 30.5708 151.242 35.0104C146.697 34.4687 143.326 35.3114 138.781 34.7696C139.488 37.5237 142.227 44.0552 142.227 44.0552C142.227 44.0552 125.04 30.631 115.604 26.0108C111.977 24.2349 108.17 22.6096 104.152 22.3387C100.118 22.0678 95.7841 23.347 93.4062 26.1161Z" fill="white"/>
<path id="Vector_32" d="M142.228 44.4921C142.138 44.4921 142.033 44.462 141.957 44.4018C141.792 44.2664 124.711 30.9475 115.41 26.4175C111.888 24.7019 108.066 23.0615 104.123 22.7906C99.969 22.5046 95.8906 23.9193 93.7686 26.4025C93.6181 26.5831 93.3623 26.6132 93.1666 26.4777C92.971 26.3423 92.9108 26.1015 93.0161 25.8908C97.2752 17.8694 102.317 13.6103 108.006 13.2642C113.258 12.9482 118.977 14.6337 123.657 17.8995L125.267 19.0132C134.026 25.1383 141.596 30.4207 151.439 34.5744C151.649 34.6647 151.755 34.8905 151.695 35.1012C151.634 35.3119 151.424 35.4624 151.198 35.4323C148.955 35.1614 146.969 35.2366 145.043 35.3118C143.267 35.3871 141.446 35.4473 139.414 35.2517C140.302 38.2014 142.635 43.7848 142.65 43.845C142.725 44.0406 142.665 44.2513 142.514 44.3717C142.424 44.462 142.319 44.4921 142.228 44.4921ZM103.054 21.8575C103.43 21.8575 103.792 21.8726 104.168 21.9026C108.276 22.1886 112.174 23.8591 115.786 25.6199C123.642 29.4575 136.931 39.4505 141.16 42.6861C140.302 40.5641 138.842 36.8469 138.33 34.8905C138.3 34.74 138.33 34.5895 138.421 34.4841C138.511 34.3788 138.662 34.3035 138.812 34.3336C141.054 34.6045 143.041 34.5293 144.967 34.454C146.156 34.4089 147.375 34.3637 148.654 34.3938C139.85 30.3756 132.777 25.4242 124.696 19.7807L123.085 18.667C118.57 15.5066 113.062 13.8812 108.006 14.1973C102.272 14.5585 97.9524 19.3593 95.0478 24.0849C97.2451 22.6551 100.089 21.8575 103.054 21.8575Z" fill="#429777"/>
</g>
<g id="Group_33">
<path id="Vector_33" d="M80.0464 154.854C79.6401 154.854 79.2488 154.718 78.9177 154.462C55.7714 135.831 31.8275 116.583 3.98576 104.874C3.06773 104.483 2.63129 103.429 3.02258 102.511C3.41387 101.593 4.46734 101.157 5.38537 101.548C33.2422 113.257 57.0807 132.264 80.0915 150.775C101.989 134.552 126.143 120.194 151.908 108.08C152.676 107.718 153.579 107.944 154.09 108.606C156.333 111.496 160.517 112.85 164.038 111.827C167.56 110.804 170.359 107.417 170.705 103.775C170.765 103.143 170.765 102.451 170.765 101.729C170.765 99.7872 170.78 97.59 172.03 95.6637C172.963 94.2189 174.407 93.3009 175.461 92.6387C193.34 81.2913 212.889 73.1946 233.552 68.6045C234.515 68.3938 235.494 68.9958 235.704 69.974C235.915 70.9522 235.313 71.9154 234.335 72.1261C214.063 76.6259 194.905 84.5571 177.387 95.6787C176.349 96.3409 175.521 96.8977 175.054 97.6201C174.377 98.6585 174.377 100.148 174.377 101.729C174.377 102.496 174.377 103.294 174.287 104.107C173.79 109.238 169.998 113.829 165.031 115.273C160.547 116.568 155.475 115.198 152.209 111.902C126.67 124.002 102.756 138.329 81.1149 154.477C80.8139 154.733 80.4377 154.854 80.0464 154.854Z" fill="#317159"/>
</g>
<g id="Group_34">
<path id="Vector_34" d="M166.276 106.952C166.065 106.952 165.885 106.801 165.84 106.59C163.688 95.6645 166.517 83.9107 173.41 75.1669C180.302 66.4231 191.063 60.93 202.199 60.4785C202.44 60.4785 202.651 60.6591 202.666 60.915C202.681 61.1708 202.485 61.3665 202.23 61.3815C191.364 61.8179 180.844 67.1756 174.117 75.7238C167.375 84.2719 164.606 95.7397 166.713 106.41C166.758 106.651 166.607 106.891 166.351 106.937C166.336 106.952 166.306 106.952 166.276 106.952Z" fill="#429777"/>
</g>
<g id="Group_35">
<path id="Vector_35" d="M214.241 60.2815C213.654 60.2815 213.082 60.2665 212.495 60.2364C212.239 60.2213 212.059 60.0106 212.059 59.7698C212.074 59.529 212.254 59.3033 212.525 59.3334C219.96 59.6645 227.62 57.7984 234.061 54.051C234.272 53.9306 234.558 53.9908 234.678 54.2165C234.799 54.4272 234.723 54.7132 234.513 54.8336C228.433 58.3702 221.299 60.2815 214.241 60.2815Z" fill="#429777"/>
</g>
<g id="Group_36">
<path id="Vector_36" d="M168.031 105.367H168.016C167.76 105.352 167.58 105.142 167.595 104.901C168.392 89.0234 179.484 74.4705 194.579 69.4891C194.819 69.4138 195.075 69.5342 195.15 69.775C195.226 70.0158 195.105 70.2716 194.864 70.3469C180.116 75.2079 169.28 89.4448 168.498 104.946C168.467 105.187 168.272 105.367 168.031 105.367Z" fill="#429777"/>
</g>
<g id="Group_37">
<path id="Vector_37" d="M219.872 65.9714C219.661 65.9714 219.48 65.836 219.435 65.6253C219.375 65.3845 219.525 65.1437 219.781 65.0835C223.438 64.2558 227.487 63.1271 231.49 61.8178C231.731 61.7425 231.986 61.878 232.062 62.1037C232.137 62.3445 232.002 62.6003 231.776 62.6756C227.742 63.9849 223.664 65.1287 219.992 65.9564C219.947 65.9715 219.917 65.9714 219.872 65.9714Z" fill="#429777"/>
</g>
<g id="Group_38">
<path id="Vector_38" d="M169.924 103.743C169.894 103.743 169.864 103.743 169.833 103.728C169.593 103.683 169.427 103.442 169.472 103.202C170.887 95.5112 176.335 88.1369 184.386 82.9749C191.806 78.2042 200.234 74.3365 208.12 72.064C211.31 71.146 214.23 70.4537 217.044 69.7915C221.393 68.7681 225.908 67.6996 231.492 65.7431C231.732 65.6528 231.988 65.7883 232.064 66.014C232.154 66.2548 232.018 66.5107 231.793 66.5859C226.149 68.5574 221.634 69.626 217.255 70.6644C214.456 71.3266 211.551 72.0188 208.375 72.9218C200.58 75.1642 192.242 79.0018 184.883 83.7274C177.027 88.769 171.745 95.9176 170.36 103.367C170.315 103.593 170.134 103.743 169.924 103.743Z" fill="#429777"/>
</g>
<g id="Group_39">
<path id="Vector_39" d="M200.952 69.1753C200.741 69.1753 200.545 69.0248 200.515 68.7991C200.47 68.5583 200.636 68.3175 200.891 68.2874C203.329 67.881 205.572 67.565 207.724 67.249C209.876 66.9329 212.118 66.6169 214.541 66.2105C214.797 66.1654 215.023 66.3309 215.053 66.5868C215.098 66.8276 214.933 67.0684 214.677 67.0985C212.239 67.5048 209.996 67.8208 207.844 68.1369C205.692 68.4529 203.45 68.769 201.027 69.1753C200.997 69.1753 200.982 69.1753 200.952 69.1753Z" fill="#429777"/>
</g>
<g id="Group_40">
<path id="Vector_40" d="M117.958 112.348C117.822 112.348 117.702 112.288 117.611 112.183C117.446 111.987 117.476 111.701 117.672 111.55C122.819 107.231 129.591 106.253 137.281 105.501C140.276 105.2 143.376 104.899 146.461 105.215C151.578 105.726 156.274 107.878 160.819 109.955C161.044 110.061 161.15 110.331 161.044 110.557C160.939 110.783 160.668 110.888 160.443 110.783C155.973 108.736 151.338 106.629 146.371 106.118C143.376 105.817 140.321 106.118 137.371 106.404C129.847 107.141 123.21 108.104 118.258 112.258C118.168 112.318 118.063 112.348 117.958 112.348Z" fill="#429777"/>
</g>
<g id="Group_41">
<path id="Vector_41" d="M75.0239 143.397C74.8283 143.397 74.6326 143.261 74.5875 143.05C74.5273 142.81 74.6778 142.569 74.9186 142.509C82.2929 140.658 88.4181 135.465 93.9262 130.138C94.6486 129.431 95.386 128.723 96.1084 128.001C100.879 123.32 105.83 118.474 111.865 115.404C112.091 115.299 112.362 115.374 112.467 115.6C112.573 115.826 112.497 116.097 112.272 116.202C106.342 119.197 101.466 123.998 96.7254 128.633C96.0031 129.355 95.2656 130.063 94.5433 130.77C88.9448 136.188 82.7143 141.47 75.1293 143.366C75.0992 143.382 75.0691 143.397 75.0239 143.397Z" fill="#429777"/>
</g>
<g id="Group_42">
<path id="Vector_42" d="M104.646 129.613C104.525 129.613 104.405 129.568 104.315 129.462C104.149 129.282 104.164 128.996 104.345 128.83C115.165 119.003 129.071 111.884 144.587 108.272C146.544 107.821 148.831 107.339 151.089 107.535C153.572 107.746 155.739 108.784 157.033 110.409C157.184 110.605 157.154 110.891 156.958 111.042C156.762 111.192 156.476 111.162 156.326 110.966C155.182 109.537 153.241 108.619 150.998 108.423C148.876 108.242 146.769 108.679 144.783 109.145C129.432 112.727 115.662 119.755 104.947 129.492C104.871 129.583 104.766 129.613 104.646 129.613Z" fill="#429777"/>
</g>
<g id="Group_43">
<path id="Vector_43" d="M78.0997 147.614C77.9342 147.614 77.7686 147.524 77.6934 147.358C77.588 147.132 77.6934 146.862 77.9191 146.756C86.1814 142.949 93.7513 137.862 100.403 131.661C100.584 131.496 100.87 131.496 101.035 131.676C101.201 131.857 101.201 132.143 101.02 132.309C94.2931 138.584 86.6479 143.716 78.3104 147.569C78.2201 147.599 78.1599 147.614 78.0997 147.614Z" fill="#429777"/>
</g>
<g id="Group_44">
<path id="Vector_44" d="M158.636 111.63C156.845 111.63 155.175 110.923 154.197 109.674C154.046 109.478 154.076 109.192 154.272 109.042C154.468 108.891 154.754 108.922 154.904 109.117C155.912 110.381 157.794 110.983 159.705 110.637C161.646 110.291 163.347 109.117 164.611 108.124C167.531 105.851 171.218 102.074 172.196 96.9721C172.241 96.7313 172.482 96.5658 172.723 96.6109C172.964 96.6561 173.129 96.8969 173.084 97.1377C172.046 102.51 168.208 106.468 165.168 108.831C163.828 109.87 162.007 111.119 159.87 111.51C159.449 111.6 159.043 111.63 158.636 111.63Z" fill="#429777"/>
</g>
<g id="Group_45">
<path id="Vector_45" d="M71.2976 141.172C71.1922 141.172 71.0718 141.126 70.9966 141.051C50.5442 122.465 23.4549 105.399 0.293613 96.5496C0.143117 96.4894 0.0377695 96.354 0.00767029 96.2035C-0.0224289 96.053 0.0377695 95.8874 0.158166 95.782C8.90198 88.3927 14.0339 82.0869 18.9852 75.9768C24.3429 69.37 29.4146 63.1395 38.3992 56.7133C50.2282 48.2554 62.3581 48.6317 76.4295 49.0681C78.3709 49.1283 80.3424 49.1885 82.3741 49.2337C83.8339 39.4364 89.1765 29.895 96.7314 23.6343C108.861 13.5812 121.006 7.5463 132.82 5.7253C134.536 5.45441 136.312 5.2738 138.027 5.07816C143.807 4.46112 149.781 3.814 155.124 0.202102C155.274 0.0967546 155.47 0.0967399 155.62 0.187037C181.024 15.944 209.317 30.4819 239.733 43.4095C239.868 43.4697 239.958 43.575 239.988 43.7105C240.019 43.8459 239.988 43.9964 239.913 44.1017C235.188 50.1065 227.347 51.8824 219.054 53.2971L205.57 55.6147C196.269 57.21 185.72 59.0159 177.232 64.494C169.767 69.3249 164.123 77.0152 161.746 85.5784C159.488 93.7353 160.692 102.178 164.951 108.183C165.057 108.333 165.057 108.544 164.951 108.695C164.846 108.845 164.65 108.92 164.47 108.875C160.391 107.792 156.433 106.046 152.611 104.36C147.313 102.028 141.835 99.6046 136.041 99.0027C126.605 98.0094 116.1 101.952 106.438 110.079C100.81 114.82 98.1009 118.326 95.708 121.427C94.5492 122.932 93.4355 124.361 92.0961 125.806C91.5995 126.333 91.0878 126.905 90.5611 127.492C86.2719 132.247 80.4026 138.779 71.3879 141.126C71.3728 141.172 71.3427 141.172 71.2976 141.172ZM1.33203 95.9777C24.3579 104.917 51.1311 121.818 71.433 140.224C80.0414 137.891 85.5195 131.811 89.929 126.92C90.4557 126.333 90.9674 125.761 91.464 125.219C92.7734 123.804 93.872 122.39 95.0157 120.9C97.4387 117.769 100.178 114.218 105.882 109.417C115.724 101.125 126.484 97.1215 136.161 98.1298C142.091 98.7468 147.644 101.2 153.002 103.563C156.418 105.068 159.94 106.633 163.552 107.701C159.699 101.561 158.691 93.3139 160.888 85.3527C163.311 76.5788 169.105 68.6928 176.75 63.7565C185.389 58.1731 196.029 56.3521 205.42 54.7418L218.904 52.4242C226.805 51.0697 234.27 49.3992 238.83 44.0114C208.67 31.1741 180.603 16.7416 155.395 1.10506C149.932 4.70192 143.942 5.34906 138.133 5.98114C136.432 6.16173 134.671 6.35738 132.971 6.61322C121.322 8.41917 109.328 14.3788 97.3183 24.3266C89.8387 30.527 84.5563 40.0383 83.2169 49.7453C83.1868 49.9711 82.9911 50.1667 82.7654 50.1366C80.5982 50.0915 78.4913 50.0313 76.4145 49.9711C62.5237 49.5347 50.5141 49.1735 38.941 57.4508C30.0617 63.8017 25.0351 69.987 19.7076 76.5487C14.8165 82.5384 9.78991 88.7388 1.33203 95.9777Z" fill="#429777"/>
</g>
<g id="Group_46">
<path id="Vector_46" d="M4.41965 103.066C4.224 103.066 4.04341 102.945 3.98321 102.749C3.26083 100.402 1.95151 98.2647 0.205759 96.549C0.0251637 96.3684 0.0251637 96.0825 0.205759 95.917C0.386354 95.7514 0.672296 95.7364 0.837842 95.917C2.68894 97.738 4.0735 100.01 4.84103 102.509C4.91628 102.749 4.78084 103.005 4.54004 103.066C4.50994 103.066 4.46479 103.066 4.41965 103.066Z" fill="#429777"/>
</g>
<g id="Group_47">
<path id="Vector_47" d="M232.578 70.2314C232.397 70.2314 232.231 70.126 232.156 69.9454C230.215 65.1145 231.554 59.817 233.014 56.2051C233.947 53.8724 235.151 51.6451 236.31 49.478C237.288 47.6569 238.296 45.7757 239.139 43.8644C239.244 43.6387 239.5 43.5334 239.726 43.6387C239.952 43.744 240.057 43.9999 239.952 44.2257C239.094 46.1671 238.086 48.0633 237.092 49.8993C235.949 52.0364 234.76 54.2637 233.842 56.5362C232.442 59.9826 231.163 65.0543 232.984 69.5992C233.074 69.825 232.969 70.0959 232.728 70.1862C232.698 70.2163 232.638 70.2314 232.578 70.2314Z" fill="#429777"/>
</g>
<g id="Group_48">
<path id="Vector_48" d="M164.003 108.319C163.913 108.319 163.808 108.289 163.733 108.229C138.66 89.0253 113.121 71.0862 82.5099 50.0619C82.2992 49.9265 82.2541 49.6405 82.3895 49.4298C82.5249 49.2191 82.8109 49.174 83.0216 49.3094C113.648 70.3337 139.187 88.2878 164.274 107.506C164.47 107.657 164.515 107.943 164.365 108.138C164.274 108.259 164.139 108.319 164.003 108.319Z" fill="#429777"/>
</g>
<g id="Group_49">
<path id="Vector_49" d="M149.423 74.9858C149.378 74.9858 149.332 74.9858 149.302 74.9708C149.061 74.8955 148.926 74.6547 149.001 74.4139C150.898 67.9426 155.909 62.9161 159.521 59.7105C172.042 48.5588 188.085 41.1543 204.685 38.8668C204.926 38.8367 205.166 39.0022 205.196 39.2581C205.227 39.4989 205.061 39.7397 204.805 39.7698C188.371 42.0272 172.494 49.3564 160.108 60.3877C156.586 63.5331 151.68 68.4242 149.844 74.6698C149.799 74.8654 149.618 74.9858 149.423 74.9858Z" fill="#429777"/>
</g>
<g id="Group_50">
<path id="Vector_50" d="M134.166 66.6322C134.091 66.6322 134.001 66.6172 133.926 66.572C133.715 66.4366 133.64 66.1657 133.775 65.955C145.574 46.6915 166.839 33.1619 189.278 30.6185C189.504 30.5884 189.744 30.769 189.775 31.0098C189.805 31.2506 189.624 31.4763 189.383 31.5064C167.215 34.0047 146.191 47.3838 134.543 66.4064C134.467 66.5569 134.317 66.6322 134.166 66.6322Z" fill="#429777"/>
</g>
<g id="Group_51">
<path id="Vector_51" d="M119.858 59.3448C119.798 59.3448 119.752 59.3298 119.692 59.3147C119.467 59.2244 119.346 58.9686 119.436 58.7278C121.679 52.9337 125.667 47.7265 130.678 44.0544C130.874 43.9039 131.16 43.9491 131.311 44.1447C131.461 44.3404 131.416 44.6263 131.22 44.7768C126.344 48.3436 122.461 53.4153 120.279 59.0439C120.204 59.2395 120.038 59.3448 119.858 59.3448Z" fill="#429777"/>
</g>
<g id="Group_52">
<path id="Vector_52" d="M146.95 30.3748C146.785 30.3748 146.619 30.2846 146.544 30.119C146.439 29.8933 146.529 29.6224 146.74 29.517C155.664 25.0623 165.582 23.3166 175.184 21.6461C175.424 21.601 175.665 21.7665 175.71 22.0073C175.755 22.2481 175.59 22.4889 175.349 22.534C165.823 24.2045 155.95 25.9202 147.146 30.3297C147.086 30.3598 147.011 30.3748 146.95 30.3748Z" fill="#429777"/>
</g>
<g id="Group_53">
<path id="Vector_53" d="M108.143 51.3721C108.083 51.3721 108.022 51.357 107.962 51.3269C107.736 51.2216 107.631 50.9657 107.736 50.74C109.798 46.0746 112.928 41.8306 116.766 38.4595C116.947 38.294 117.233 38.309 117.398 38.5047C117.564 38.6853 117.549 38.9712 117.353 39.1368C113.606 42.4176 110.566 46.5562 108.564 51.1012C108.474 51.2668 108.308 51.3721 108.143 51.3721Z" fill="#429777"/>
</g>
<g id="Group_54">
<path id="Vector_54" d="M135.988 22.5489C135.837 22.5489 135.687 22.4736 135.611 22.3381C135.476 22.1274 135.536 21.8565 135.747 21.7211C143.257 16.9353 148.614 16.228 156.726 15.1595L159.014 14.8585C159.254 14.8133 159.48 14.994 159.525 15.2498C159.555 15.4906 159.39 15.7163 159.134 15.7615L156.846 16.0625C148.855 17.131 143.573 17.8233 136.228 22.5037C136.153 22.5188 136.063 22.5489 135.988 22.5489Z" fill="#429777"/>
</g>
<g id="Group_55">
<path id="Vector_55" d="M72.7125 120.673C72.6222 120.673 72.5168 120.643 72.4416 120.583C72.246 120.432 72.2008 120.146 72.3513 119.951C76.8963 113.931 81.5918 107.715 87.2805 102.523C96.3253 94.2458 107.959 88.6473 120.074 86.7511C120.299 86.7059 120.555 86.8865 120.585 87.1273C120.63 87.3681 120.45 87.609 120.209 87.6391C108.275 89.5203 96.8069 95.0284 87.8975 103.185C82.269 108.332 77.6036 114.518 73.0887 120.492C72.9834 120.613 72.8479 120.673 72.7125 120.673Z" fill="#429777"/>
</g>
<g id="Group_56">
<path id="Vector_56" d="M56.6441 113.356C56.4936 113.356 56.328 113.281 56.2528 113.131C56.1324 112.92 56.2076 112.634 56.4183 112.513C61.2492 109.789 64.7558 105.229 68.142 100.82C69.3309 99.2698 70.5649 97.6746 71.8291 96.1696C80.4676 85.966 92.447 78.8625 105.54 76.1687C105.781 76.1085 106.022 76.274 106.067 76.5148C106.112 76.7556 105.962 76.9964 105.721 77.0416C92.8233 79.7054 81.0394 86.7034 72.5214 96.7415C71.2572 98.2314 70.0382 99.8116 68.8493 101.362C65.4029 105.846 61.8362 110.482 56.8548 113.281C56.7946 113.326 56.7193 113.356 56.6441 113.356Z" fill="#429777"/>
</g>
<g id="Group_57">
<path id="Vector_57" d="M42.2834 103.412C42.1028 103.412 41.9222 103.307 41.862 103.111C41.7717 102.885 41.8921 102.614 42.1329 102.539C46.9939 100.763 50.5306 96.7599 54.3231 92.1247C54.4736 91.929 54.7595 91.899 54.9552 92.0645C55.1508 92.215 55.1809 92.5009 55.0154 92.6966C51.1326 97.4522 47.5056 101.531 42.4339 103.397C42.3887 103.412 42.3285 103.412 42.2834 103.412Z" fill="#429777"/>
</g>
<g id="Group_58">
<path id="Vector_58" d="M59.7445 87.4272C59.6241 87.4272 59.5187 87.382 59.4284 87.2917C59.2478 87.1111 59.2478 86.8252 59.4284 86.6596C68.3528 77.5998 79.5798 71.0984 91.8753 67.8326C92.1161 67.7724 92.3569 67.9078 92.4322 68.1486C92.4924 68.3894 92.3569 68.6302 92.1161 68.7055C79.9711 71.9261 68.8946 78.3523 60.0755 87.2917C59.9853 87.382 59.8649 87.4272 59.7445 87.4272Z" fill="#429777"/>
</g>
<g id="Group_59">
<path id="Vector_59" d="M30.1078 95.0722C29.9573 95.0722 29.8068 94.9969 29.7165 94.8464C29.581 94.6357 29.6563 94.3497 29.867 94.2293C35.0139 91.1442 39.5288 87.2163 43.2762 82.5358L43.8631 81.7984C45.1574 80.158 46.4817 78.4725 48.3178 77.3889C48.5285 77.2685 48.8144 77.3287 48.9348 77.5544C49.0552 77.7651 48.995 78.0511 48.7693 78.1715C47.0687 79.1647 45.8045 80.7901 44.5554 82.3552L43.9684 83.0927C40.1459 87.8483 35.5557 91.8515 30.3185 94.9969C30.2583 95.042 30.183 95.0722 30.1078 95.0722Z" fill="#429777"/>
</g>
<g id="Group_60">
<path id="Vector_60" d="M56.5916 72.514C56.4712 72.514 56.3358 72.4538 56.2455 72.3635C56.0799 72.1678 56.11 71.8969 56.2906 71.7314C63.3489 65.6664 72.3636 62.0093 81.6492 61.4074C81.89 61.3773 82.1157 61.5729 82.1308 61.8287C82.1458 62.0695 81.9652 62.2953 81.7094 62.3103C72.6194 62.8973 63.8004 66.4941 56.8776 72.4237C56.8023 72.4839 56.697 72.514 56.5916 72.514Z" fill="#429777"/>
</g>
<g id="Group_61">
<path id="Vector_61" d="M93.4062 26.1161C96.5366 20.2167 101.352 14.1366 108.019 13.7303C113.377 13.3992 118.991 15.2051 123.385 18.2753C132.731 24.7917 140.737 30.5708 151.242 35.0104C146.697 34.4687 143.326 35.3114 138.781 34.7696C139.488 37.5237 142.227 44.0552 142.227 44.0552C142.227 44.0552 125.04 30.631 115.604 26.0108C111.977 24.2349 108.17 22.6096 104.152 22.3387C100.118 22.0678 95.7841 23.347 93.4062 26.1161Z" fill="white"/>
<path id="Vector_62" d="M142.228 44.4921C142.138 44.4921 142.033 44.462 141.957 44.4018C141.792 44.2664 124.711 30.9475 115.41 26.4175C111.888 24.7019 108.066 23.0615 104.123 22.7906C99.969 22.5046 95.8906 23.9193 93.7686 26.4025C93.6181 26.5831 93.3623 26.6132 93.1666 26.4777C92.971 26.3423 92.9108 26.1015 93.0161 25.8908C97.2752 17.8694 102.317 13.6103 108.006 13.2642C113.258 12.9482 118.977 14.6337 123.657 17.8995L125.267 19.0132C134.026 25.1383 141.596 30.4207 151.439 34.5744C151.649 34.6647 151.755 34.8905 151.695 35.1012C151.634 35.3119 151.424 35.4624 151.198 35.4323C148.955 35.1614 146.969 35.2366 145.043 35.3118C143.267 35.3871 141.446 35.4473 139.414 35.2517C140.302 38.2014 142.635 43.7848 142.65 43.845C142.725 44.0406 142.665 44.2513 142.514 44.3717C142.424 44.462 142.319 44.4921 142.228 44.4921ZM103.054 21.8575C103.43 21.8575 103.792 21.8726 104.168 21.9026C108.276 22.1886 112.174 23.8591 115.786 25.6199C123.642 29.4575 136.931 39.4505 141.16 42.6861C140.302 40.5641 138.842 36.8469 138.33 34.8905C138.3 34.74 138.33 34.5895 138.421 34.4841C138.511 34.3788 138.662 34.3035 138.812 34.3336C141.054 34.6045 143.041 34.5293 144.967 34.454C146.156 34.4089 147.375 34.3637 148.654 34.3938C139.85 30.3756 132.777 25.4242 124.696 19.7807L123.085 18.667C118.57 15.5066 113.062 13.8812 108.006 14.1973C102.272 14.5585 97.9524 19.3593 95.0478 24.0849C97.2451 22.6551 100.089 21.8575 103.054 21.8575Z" fill="#429777"/>
</g>
<g id="Group_62">
<g id="Group_63">
<path id="Vector_63" d="M76.2319 27.2733C76.2169 27.2733 76.2018 27.2733 76.1867 27.2733C75.946 27.2432 75.7503 27.0325 75.7804 26.7767C76.5178 18.981 79.1365 11.3809 83.3504 4.77417C83.4858 4.56348 83.7717 4.50328 83.9674 4.63873C84.1781 4.77418 84.2383 5.04507 84.1028 5.25577C79.9792 11.7421 77.4058 19.2067 76.6834 26.867C76.6683 27.1078 76.4727 27.2733 76.2319 27.2733Z" fill="#429777"/>
</g>
<g id="Group_64">
<path id="Vector_64" d="M66.5118 26.8379C66.2861 26.8379 66.0905 26.6723 66.0604 26.4466C65.4734 21.7511 64.4802 17.0556 63.1106 12.4956C63.0354 12.2548 63.1708 11.999 63.4116 11.9388C63.6524 11.8635 63.9083 11.999 63.9685 12.2398C65.353 16.8299 66.3463 21.5856 66.9483 26.3262C66.9784 26.567 66.7978 26.7927 66.557 26.8228C66.557 26.8379 66.5419 26.8379 66.5118 26.8379Z" fill="#429777"/>
</g>
<g id="Group_65">
<path id="Vector_65" d="M56.7457 34.3491C56.5952 34.3491 56.4597 34.2738 56.3694 34.1383C53.9916 30.4512 49.6122 28.0433 45.2327 27.9831C44.9919 27.9831 44.7812 27.7724 44.7812 27.5316C44.7812 27.2908 44.9919 27.0801 45.2327 27.0801C49.9884 27.1403 54.5334 29.6536 57.1219 33.6417C57.2574 33.8524 57.1972 34.1233 56.9865 34.2588C56.9263 34.334 56.836 34.3491 56.7457 34.3491Z" fill="#429777"/>
</g>
</g>
</g>
</svg>
