<svg width="166" height="187" viewBox="0 0 166 187" fill="none" xmlns="http://www.w3.org/2000/svg">
<g id="Group">
<path id="Vector" d="M11.8008 155.132C11.8008 155.132 143.361 155.132 153.021 155.132C162.351 144.902 163.361 131.812 153.021 124.102C143.091 124.102 11.8008 124.102 11.8008 124.102V127.812H16.2708V150.972H11.8008V155.132Z" fill="#0091A2"/>
<path id="Vector_2" d="M16.2793 150.973C16.2793 150.973 141.309 150.973 150.379 150.973C156.839 145.843 157.029 132.512 150.379 127.812C141.049 127.812 16.2793 127.812 16.2793 127.812V150.973Z" fill="white"/>
<path id="Vector_3" opacity="0.2" d="M146.979 132.132C138.569 132.132 36.3293 132.132 16.2793 132.132V127.812C16.2793 127.812 141.059 127.812 150.379 127.812C157.029 132.512 156.839 145.843 150.379 150.973C150.349 150.973 150.319 150.973 150.279 150.973C153.199 144.793 152.189 135.812 146.979 132.132Z" fill="#231F20"/>
<g id="Group_2">
<path id="Vector_4" d="M145.09 136.701C136.65 137.091 128.2 137.351 119.76 137.481C111.32 137.641 102.87 137.681 94.4295 137.701C85.9895 137.681 77.5395 137.641 69.0995 137.481C60.6595 137.351 52.2095 137.091 43.7695 136.701C52.2095 136.311 60.6595 136.051 69.0995 135.921C77.5395 135.761 85.9895 135.721 94.4295 135.701C102.87 135.721 111.32 135.761 119.76 135.921C128.2 136.061 136.64 136.321 145.09 136.701Z" fill="#DFDBDA"/>
</g>
<g id="Group_3">
<path id="Vector_5" d="M130.34 143.711C121.9 144.101 113.45 144.361 105.01 144.491C96.5695 144.651 88.1195 144.691 79.6795 144.711C71.2395 144.691 62.7895 144.651 54.3495 144.491C45.9095 144.361 37.4595 144.101 29.0195 143.711C37.4595 143.321 45.9095 143.061 54.3495 142.931C62.7895 142.771 71.2395 142.731 79.6795 142.711C88.1195 142.731 96.5695 142.771 105.01 142.931C113.45 143.061 121.9 143.321 130.34 143.711Z" fill="#DFDBDA"/>
</g>
<path id="Vector_6" d="M151.33 93.1823C151.33 93.1823 19.7696 93.1823 10.1096 93.1823C0.779621 82.9523 -0.230379 69.8623 10.1096 62.1523C20.0396 62.1523 151.33 62.1523 151.33 62.1523V65.8623H146.86V89.0223H151.33V93.1823Z" fill="#00A1DD"/>
<path id="Vector_7" d="M146.86 89.0311C146.86 89.0311 21.8303 89.0311 12.7603 89.0311C6.30026 83.9011 6.11026 70.5711 12.7603 65.8711C22.0903 65.8711 146.86 65.8711 146.86 65.8711V89.0311Z" fill="white"/>
<path id="Vector_8" opacity="0.2" d="M16.1603 70.1813C24.5703 70.1813 126.81 70.1813 146.86 70.1813V65.8613C146.86 65.8613 22.0803 65.8613 12.7603 65.8613C6.11026 70.5613 6.30026 83.8913 12.7603 89.0213C12.7903 89.0213 12.8203 89.0213 12.8603 89.0213C9.94026 82.8413 10.9503 73.8713 16.1603 70.1813Z" fill="#231F20"/>
<g id="Group_4">
<path id="Vector_9" d="M18.0508 74.7617C26.4908 74.3717 34.9408 74.1117 43.3808 73.9817C51.8208 73.8217 60.2708 73.7817 68.7108 73.7617C77.1508 73.7817 85.6008 73.8217 94.0408 73.9817C102.481 74.1117 110.931 74.3717 119.371 74.7617C110.931 75.1517 102.481 75.4117 94.0408 75.5417C85.6008 75.7017 77.1508 75.7417 68.7108 75.7617C60.2708 75.7417 51.8208 75.7017 43.3808 75.5417C34.9308 75.4017 26.4908 75.1417 18.0508 74.7617Z" fill="#DFDBDA"/>
</g>
<g id="Group_5">
<path id="Vector_10" d="M32.791 81.7617C41.231 81.3717 49.681 81.1117 58.121 80.9817C66.561 80.8217 75.011 80.7817 83.451 80.7617C91.891 80.7817 100.341 80.8217 108.781 80.9817C117.221 81.1117 125.671 81.3717 134.111 81.7617C125.671 82.1517 117.221 82.4117 108.781 82.5417C100.341 82.7017 91.891 82.7417 83.451 82.7617C75.011 82.7417 66.561 82.7017 58.121 82.5417C49.681 82.4117 41.241 82.1517 32.791 81.7617Z" fill="#DFDBDA"/>
</g>
<path id="Vector_11" d="M17.3496 186.151C17.3496 186.151 148.91 186.151 158.57 186.151C167.9 175.921 168.91 162.831 158.57 155.131C148.64 155.131 17.3496 155.131 17.3496 155.131V158.841H21.8196V182.001H17.3496V186.151Z" fill="#EEAF35"/>
<path id="Vector_12" d="M0.460938 186.151C0.460938 186.151 132.021 186.151 141.681 186.151C151.011 175.921 152.021 162.831 141.681 155.131C131.751 155.131 0.460938 155.131 0.460938 155.131V158.841H4.93092V182.001H0.460938V186.151Z" fill="#FFDB49"/>
<path id="Vector_13" d="M4.92969 182.002C4.92969 182.002 129.96 182.002 139.03 182.002C145.49 176.872 145.68 163.542 139.03 158.842C129.7 158.842 4.92969 158.842 4.92969 158.842V182.002Z" fill="white"/>
<path id="Vector_14" opacity="0.2" d="M135.63 163.162C127.22 163.162 24.9797 163.162 4.92969 163.162V158.842C4.92969 158.842 129.71 158.842 139.03 158.842C145.68 163.542 145.49 176.872 139.03 182.002C139 182.002 138.97 182.002 138.93 182.002C141.85 175.822 140.84 166.842 135.63 163.162Z" fill="#231F20"/>
<g id="Group_6">
<path id="Vector_15" d="M133.74 167.732C125.3 168.122 116.85 168.382 108.41 168.512C99.9699 168.672 91.5199 168.712 83.0799 168.732C74.6399 168.712 66.1899 168.672 57.7499 168.512C49.3099 168.382 40.8599 168.122 32.4199 167.732C40.8599 167.342 49.3099 167.082 57.7499 166.952C66.1899 166.792 74.6399 166.752 83.0799 166.732C91.5199 166.752 99.9699 166.792 108.41 166.952C116.85 167.082 125.3 167.342 133.74 167.732Z" fill="#DFDBDA"/>
</g>
<g id="Group_7">
<path id="Vector_16" d="M119 174.742C110.56 175.132 102.11 175.392 93.6697 175.522C85.2297 175.682 76.7797 175.722 68.3397 175.742C59.8997 175.722 51.4497 175.682 43.0097 175.522C34.5697 175.392 26.1197 175.132 17.6797 174.742C26.1197 174.352 34.5697 174.092 43.0097 173.962C51.4497 173.802 59.8997 173.762 68.3397 173.742C76.7797 173.762 85.2297 173.802 93.6697 173.962C102.11 174.092 110.55 174.352 119 174.742Z" fill="#DFDBDA"/>
</g>
<g id="Group_8">
<path id="Vector_17" d="M17.2207 62.4616C17.2207 62.4616 148.781 62.4616 158.441 62.4616C167.771 52.2316 168.781 39.1416 158.441 31.4316C148.511 31.4316 17.2207 31.4316 17.2207 31.4316V35.1416H21.6907V58.3016H17.2207V62.4616Z" fill="#3CB35E"/>
<path id="Vector_18" d="M0.330078 62.4616C0.330078 62.4616 131.89 62.4616 141.55 62.4616C150.88 52.2316 151.89 39.1416 141.55 31.4316C131.62 31.4316 0.330078 31.4316 0.330078 31.4316V35.1416H4.80008V58.3016H0.330078V62.4616Z" fill="#009364"/>
<path id="Vector_19" d="M4.81055 58.3026C4.81055 58.3026 129.841 58.3026 138.911 58.3026C145.371 53.1726 145.561 39.8426 138.911 35.1426C129.581 35.1426 4.81055 35.1426 4.81055 35.1426V58.3026Z" fill="white"/>
<path id="Vector_20" opacity="0.2" d="M135.511 39.4626C127.101 39.4626 24.8605 39.4626 4.81055 39.4626V35.1426C4.81055 35.1426 129.591 35.1426 138.911 35.1426C145.561 39.8426 145.371 53.1726 138.911 58.3026C138.881 58.3026 138.851 58.3026 138.811 58.3026C141.731 52.1226 140.721 43.1426 135.511 39.4626Z" fill="#231F20"/>
<g id="Group_9">
<path id="Vector_21" d="M133.621 44.0312C125.181 44.4212 116.731 44.6812 108.291 44.8112C99.8508 44.9712 91.4008 45.0113 82.9608 45.0312C74.5208 45.0113 66.0708 44.9712 57.6308 44.8112C49.1908 44.6812 40.7408 44.4212 32.3008 44.0312C40.7408 43.6413 49.1908 43.3812 57.6308 43.2512C66.0708 43.0912 74.5208 43.0512 82.9608 43.0312C91.4008 43.0512 99.8508 43.0912 108.291 43.2512C116.731 43.3912 125.171 43.6513 133.621 44.0312Z" fill="#DFDBDA"/>
</g>
<g id="Group_10">
<path id="Vector_22" d="M118.871 51.041C110.431 51.431 101.981 51.691 93.5408 51.821C85.1008 51.981 76.6508 52.021 68.2108 52.041C59.7708 52.021 51.3208 51.981 42.8808 51.821C34.4408 51.691 25.9908 51.431 17.5508 51.041C25.9908 50.651 34.4408 50.391 42.8808 50.261C51.3208 50.101 59.7708 50.061 68.2108 50.041C76.6508 50.061 85.1008 50.101 93.5408 50.261C101.981 50.391 110.431 50.651 118.871 51.041Z" fill="#DFDBDA"/>
</g>
</g>
<path id="Vector_23" d="M4.91992 124.281H155.69C156.79 124.281 157.69 123.381 157.69 122.281V94.8613C157.69 93.7613 156.79 92.8613 155.69 92.8613H4.91992C3.81992 92.8613 2.91992 93.7613 2.91992 94.8613V122.281C2.91992 123.391 3.80992 124.281 4.91992 124.281Z" fill="#FFDB49"/>
<path id="Vector_24" opacity="0.1" d="M155.17 100.021C155.17 99.1811 154.49 98.5111 153.66 98.5111H2.91992V94.3811C2.91992 93.5411 3.59992 92.8711 4.42992 92.8711H156.18C157.02 92.8711 157.69 93.5511 157.69 94.3811V122.771C157.69 123.611 157.01 124.281 156.18 124.281H155.17V100.021Z" fill="#231F20"/>
<path id="Vector_25" d="M118.991 124.1H137.521V92.8696H118.991V124.1Z" fill="#EEAF35"/>
<path id="Vector_26" d="M100.725 119.84H112.715V97.1298H100.725V119.84Z" fill="#EEAF35"/>
<path id="Vector_27" d="M4.91992 31.4317H155.69C156.79 31.4317 157.69 30.5317 157.69 29.4317V2.01172C157.69 0.911719 156.79 0.0117188 155.69 0.0117188H4.91992C3.81992 0.0117188 2.91992 0.911719 2.91992 2.01172V29.4317C2.91992 30.5417 3.80992 31.4317 4.91992 31.4317Z" fill="#0091A2"/>
<path id="Vector_28" opacity="0.1" d="M155.17 7.17149C155.17 6.33149 154.49 5.66148 153.66 5.66148H2.91992V1.53148C2.91992 0.691483 3.59992 0.0214844 4.42992 0.0214844H156.18C157.02 0.0214844 157.69 0.701483 157.69 1.53148V29.9215C157.69 30.7615 157.01 31.4315 156.18 31.4315H155.17V7.17149Z" fill="#231F20"/>
<path id="Vector_29" d="M118.991 31.2559L137.521 31.2559V0.025856L118.991 0.025856V31.2559Z" fill="#386E8A"/>
<path id="Vector_30" d="M100.725 26.9863H112.715V4.27633H100.725V26.9863Z" fill="#386E8A"/>
</g>
</svg>
