<svg width="145" height="184" viewBox="0 0 145 184" fill="none" xmlns="http://www.w3.org/2000/svg">
<g id="Frame" clip-path="url(#clip0_6612_36429)">
<path id="Vector" d="M93.4633 140.393C95.4423 147.879 97.3976 155.283 99.424 162.949C110.676 160.626 121.821 158.501 133.494 157.868C133.956 160.286 134.424 162.734 134.892 165.187C132.943 163.576 133.345 161.068 132.137 159.008C120.429 160.083 108.839 161.975 97.368 164.847C97.2495 165.152 97.1013 165.51 96.971 165.85C96.7814 165.892 96.5503 166.011 96.497 165.952C95.5253 164.967 94.4054 165.402 93.3685 165.671C86.5724 167.408 79.7822 169.188 72.9979 170.961C69.9109 171.767 66.8357 172.591 63.7487 173.409C64.2938 175.665 64.8271 177.857 65.3604 180.054C63.6776 178.31 63.0792 176.191 62.6763 173.946C62.1963 173.803 61.7046 173.659 60.958 173.444C61.3609 173.104 61.5564 172.812 61.8053 172.746C65.9529 171.606 70.0946 170.465 74.2599 169.385C80.505 167.761 86.762 166.191 93.013 164.585C93.5463 164.447 94.0499 164.202 94.4054 164.071C93.0663 160.334 91.6028 156.704 90.4711 152.966C89.3572 149.288 88.581 145.509 87.6211 141.64C87.2419 141.605 86.7738 141.467 86.3294 141.521C67.843 143.724 51.1637 139.079 36.4753 127.67C26.924 120.249 20.0568 110.72 16.0158 99.1555C13.6339 92.3374 12.4074 85.3282 12.2356 78.1638C12.0934 72.1278 12.9703 66.1574 14.5049 60.3065C16.478 52.7958 19.5116 45.7568 23.8548 39.3148C24.1629 38.861 24.3643 38.3297 24.6428 37.7864C22.7645 35.4579 20.9159 33.1653 18.9547 30.7354C16.4424 33.0459 14.5227 35.6967 12.6622 38.3715C6.93257 46.6105 3.51377 55.7869 2.15099 65.7335C0.290493 79.2982 1.09039 92.6896 5.23798 105.771C8.94712 117.467 14.9019 127.771 24.3229 135.825C31.2256 141.724 38.9994 145.987 47.6383 148.703C52.6035 150.268 57.6636 151.432 62.8244 151.898C67.1024 152.28 71.4218 152.298 75.7175 152.196C79.2133 152.112 82.7033 151.593 86.1991 151.306C86.7797 151.259 87.3723 151.402 87.9589 151.462C87.9707 151.647 87.9826 151.832 87.9944 152.017C85.2274 152.465 82.4662 153.193 79.6814 153.295C74.4199 153.498 69.1347 153.611 63.8909 153.253C59.9448 152.984 56.0164 152.089 52.1473 151.187C44.9601 149.503 38.1581 146.763 31.8537 142.858C20.9455 136.1 12.7807 126.852 7.53694 115.096C4.58622 108.487 2.49464 101.597 1.35109 94.3971C0.337894 88.0208 -0.177593 81.6326 0.0653375 75.1965C0.604525 60.9155 4.18331 47.6135 12.8518 36.0251C14.4812 33.8519 16.2587 31.7862 18.0541 29.5592C16.5609 27.9293 15.0559 26.2755 13.551 24.6277C13.6991 24.4844 13.8413 24.3411 13.9894 24.1979C16.1758 24.9621 17.2542 27.1114 19.0554 28.6816C22.5157 25.8039 25.9878 22.7829 30.799 22.0784C30.8642 23.4575 29.9043 23.3501 29.3237 23.5471C25.9049 24.6815 23.1141 26.789 20.4834 29.1652C20.3175 29.3144 20.2227 29.5533 19.9916 29.9234C21.6862 32.1683 23.4045 34.4489 25.2887 36.9386C26.0945 35.9654 26.8529 35.0878 27.5698 34.1803C33.8327 26.2457 41.4939 20.0962 50.6542 15.8633C62.3859 10.4422 74.5977 9.60037 87.1412 12.0482C87.5382 12.1258 87.8937 12.4482 88.3736 12.7109C87.6922 13.6065 86.9634 13.3318 86.3117 13.1766C81.382 11.9766 76.3811 11.8034 71.3448 11.9646C66.5276 12.1139 61.8586 13.1288 57.2903 14.5737C48.1301 17.4753 40.2259 22.5441 33.4653 29.3383C27.6054 35.2131 22.9423 41.9656 19.5531 49.6375C16.869 55.7093 15.1033 61.9722 14.1435 68.5336C13.1303 75.4533 13.4621 82.2774 14.6234 89.1492C15.6129 95.0002 17.4912 100.511 20.1101 105.771C23.837 113.251 28.903 119.699 35.2784 125.121C42.4597 131.228 50.5238 135.64 59.5419 138.231C73.2053 142.166 86.7323 141.879 100.141 136.888C109.888 133.258 118.373 127.724 125.649 120.291C127.468 118.434 129.073 116.362 130.661 114.201C127.9 115.347 125.246 116.684 121.744 115.025C123.042 114.84 123.841 114.619 124.635 114.625C127.717 114.666 129.98 113.192 131.746 110.828C135.336 106.015 136.539 97.6808 133.144 92.1762C131.278 89.1492 127.61 87.979 123.919 89.597C122.763 90.1045 122.212 91.0836 122.23 92.2837C122.259 94.839 120.986 96.7017 119.261 98.3615C117.703 99.86 116.168 101.382 114.569 102.827C113.478 103.806 113.01 105 112.898 106.427C112.75 108.314 113.336 109.132 115.214 109.329C116.482 109.46 117.774 109.401 119.036 109.574C120.826 109.819 122.123 110.816 122.763 112.553C122.87 112.84 122.704 113.228 122.645 113.717C122.259 113.496 121.957 113.425 121.886 113.263C120.986 111.013 119.131 110.607 117.016 110.565C115.991 110.547 114.924 110.499 113.947 110.213C112.199 109.705 111.606 108.804 111.618 107.024C111.624 105.012 112.222 103.245 113.745 101.848C115.22 100.493 116.631 99.0719 118.13 97.7525C119.753 96.3196 120.802 94.6957 120.974 92.421C121.187 89.6328 122.408 88.5582 125.133 87.9313C130.697 86.6536 133.985 90.1284 135.271 93.7643C136.575 97.4361 136.663 101.156 135.704 104.923C135.567 105.448 135.473 105.986 135.283 106.863C144.461 93.215 148.135 67.9306 137.114 47.4941C126.739 28.2517 110.634 16.4782 88.5217 12.6273C90.0978 11.8512 91.2414 12.0781 92.3612 12.2572C100.378 13.5109 107.654 16.6872 114.415 21.0933C123.806 27.2129 131.568 34.9624 137.149 44.7776C141.321 52.1152 143.661 60.0557 144.603 68.468C145.213 73.9487 145.16 79.3877 144.42 84.8207C143.258 93.3583 140.408 101.317 136.018 108.702C129.062 120.416 119.374 129.18 107.257 135.145C103.341 137.073 99.0981 138.327 95.0098 139.885C94.5535 140.034 94.1092 140.172 93.4633 140.393ZM89.1735 142.375C90.7733 149.945 92.1894 157.175 96.1533 163.695C96.9058 163.516 97.5635 163.355 98.2923 163.181C96.3429 155.933 94.441 148.871 92.4916 141.652C91.2888 141.915 90.3111 142.13 89.1735 142.375Z" fill="#429777"/>
<path id="Vector_2" d="M74.0888 33.9584C75.3034 33.8987 76.0441 33.9942 76.7195 33.8091C81.1041 32.6389 85.471 31.3911 89.8496 30.209C96.4325 28.4299 103.11 27.4149 109.942 27.7612C111.103 27.8209 112.306 28.1373 113.39 28.5791C114.954 29.2179 115.689 30.6329 115.6 32.221C115.517 33.7076 114.427 34.1196 113.319 34.6748C112.442 35.1166 111.648 35.8152 110.979 36.5495C110.019 37.6122 109.195 38.8063 108.33 39.9586C106.719 42.1139 105.966 44.3587 106.801 47.1469C107.838 50.6156 106.559 52.9381 103.152 54.3292C101.676 54.9322 100.118 55.3203 98.6188 55.8636C97.499 56.2696 96.3851 56.7173 95.3304 57.2666C94.3053 57.798 93.9498 58.8189 94.0091 59.9174C94.0683 61.0279 94.8208 61.6011 95.8163 61.8996C96.5036 62.1086 97.179 62.3414 97.8663 62.5265C102.192 63.6847 104.84 67.3684 104.307 71.8163C104.058 73.8642 103.602 75.9418 102.879 77.8703C102.162 79.7867 102.393 81.3092 103.768 82.7062C104.722 83.6734 105.741 84.575 106.719 85.5183C107.524 86.2944 108.383 87.0288 109.065 87.9064C109.48 88.4378 109.764 89.19 109.817 89.8647C109.989 91.8707 108.626 92.8021 106.944 91.7573C105.877 91.1005 105.006 90.1154 104.088 89.2318C102.014 87.2318 100.059 85.1123 97.896 83.2197C95.4015 81.0405 92.4093 80.0912 89.0794 80.0375C86.2175 79.9897 83.3379 79.8644 80.4998 79.5121C76.0618 78.9628 72.3112 77.0523 69.556 73.3388C67.5237 70.5984 65.0233 68.3595 61.7349 67.243C58.9204 66.2878 56.0408 65.8042 53.0368 66.2579C47.6034 67.0759 42.1582 67.8043 36.713 68.5565C36.162 68.6341 35.5931 68.6341 35.0421 68.6043C32.6069 68.467 31.0249 67.3266 30.5212 65.3743C30.0176 63.428 30.8708 61.0996 32.7254 59.9353C33.9993 59.1353 35.4272 58.5861 36.7782 57.9054C38.0521 57.2606 39.3971 56.7114 40.5703 55.9054C42.3063 54.7173 42.9522 52.6635 42.4071 50.8127C42.0456 49.5947 41.3879 49.1947 40.2622 49.7499C39.1245 50.3171 38.1054 51.1291 36.9856 51.744C35.8064 52.3888 34.6096 53.0515 33.3416 53.4814C31.7655 54.0128 30.4205 53.1112 30.3672 51.4396C30.3316 50.3649 30.539 49.1649 31.013 48.2096C32.9209 44.3229 35.9546 41.5825 39.8829 39.7974C42.0989 38.7884 44.392 38.5376 46.6139 39.4392C52.0236 41.6303 56.2956 40.0422 60.2002 36.0122C62.8606 33.2658 65.764 30.7165 68.8036 28.406C70.036 27.4686 71.8905 27.1044 73.5022 26.9671C76.0026 26.7582 76.6781 27.9343 75.7004 30.2329C75.2679 31.2717 74.8176 32.2927 74.0888 33.9584ZM108.555 91.2319C109.047 89.1841 107.951 88.3005 107.015 87.393C105.812 86.2228 104.544 85.1242 103.312 83.9899C101.261 82.1092 100.669 79.9897 101.771 77.2732C102.518 75.4463 103.033 73.4462 103.205 71.482C103.549 67.5475 101.143 64.5624 97.339 63.625C96.2725 63.3623 95.2237 62.9384 94.2402 62.4489C93.1144 61.8876 92.7174 60.7533 92.8241 59.601C92.9722 58.0428 93.5292 56.6218 95.1763 55.977C96.4384 55.4874 97.6945 54.968 98.9625 54.4844C100.521 53.8874 102.156 53.4456 103.643 52.7112C105.765 51.6605 106.268 50.2992 105.747 47.9827C105.302 46.0065 104.787 43.905 105.788 42.0721C107.69 38.5973 109.474 34.9316 113.455 33.224C114.67 32.7046 114.848 31.827 114.095 30.7225C113.313 29.5762 112.128 29.0269 110.825 28.997C107.874 28.9373 104.899 28.794 101.972 29.0926C96.1777 29.6777 90.5547 31.1941 84.9614 32.8181C82.2062 33.6181 79.451 34.4002 76.6781 35.1286C75.6589 35.3972 74.5983 35.4569 73.7688 34.5853C72.8623 33.6241 73.3955 32.633 73.7688 31.6717C74.1658 30.6508 74.6043 29.6478 75.2383 28.1254C73.6444 28.2687 72.5542 28.2627 71.5173 28.4896C69.5857 28.9135 68.0511 30.0956 66.6409 31.427C64.1997 33.7315 61.806 36.0958 59.347 38.3824C56.1949 41.3198 52.5805 42.5437 48.3322 41.1646C47.5738 40.9198 46.8094 40.6034 46.0273 40.5377C44.6171 40.4123 43.0825 40.0959 41.7849 40.484C37.3885 41.8094 34.1474 44.6931 32.0558 48.8126C31.4692 49.9649 31.2678 51.2306 32.2691 52.7351C33.3416 52.2515 34.4318 51.8455 35.4391 51.2784C36.8967 50.4544 38.2358 49.4156 39.723 48.6514C41.6249 47.6782 43.0292 48.329 43.5151 50.4007C44.0365 52.6217 43.8469 54.7829 41.9034 56.3173C40.7895 57.195 39.5808 58.2338 38.2713 58.5144C36.4641 58.8965 35.2021 60.1025 33.6379 60.819C32.1092 61.5235 31.3448 63.6788 31.7418 65.1415C32.1329 66.5863 33.5016 67.4341 35.5161 67.4759C35.8361 67.4819 36.162 67.5057 36.476 67.458C39.1482 67.052 41.8086 66.5983 44.4809 66.2281C47.876 65.7624 51.2711 65.1594 54.6839 64.9922C58.4701 64.8071 62.1081 65.5594 65.3788 67.7505C67.6126 69.2431 69.3842 71.1715 71.0373 73.2253C73.3778 76.121 76.3699 77.7688 80.0139 78.1986C82.384 78.4792 84.7777 78.8793 87.1478 78.8016C93.4462 78.5986 98.4233 81.0345 102.429 85.8228C103.608 87.2318 104.929 88.5214 106.268 89.7811C106.861 90.3065 107.625 90.6408 108.555 91.2319Z" fill="#429777"/>
<path id="Vector_3" d="M40.6588 76.5998C43.0466 74.8744 45.6359 74.8385 48.3022 75.4654C49.2324 75.6863 50.139 75.9968 51.0396 76.3072C52.9179 76.952 54.8021 76.8266 56.704 76.4445C58.0253 76.1759 59.3466 75.8833 60.6857 75.6983C63.4942 75.3042 65.4851 76.564 66.7294 79.0237C67.707 80.9522 68.5306 82.9582 69.4609 84.9105C69.9052 85.8478 70.3556 86.8091 70.9421 87.6569C72.0264 89.2151 73.4425 90.1166 75.4512 89.5435C77.0213 89.0957 78.3012 89.633 79.2255 90.9167C80.1202 92.1525 79.9839 93.5735 79.3144 94.7974C78.473 96.3377 77.4065 97.7527 76.4051 99.1975C75.9489 99.8543 75.4393 100.481 74.9061 101.078C73.2233 102.947 72.7849 105.114 73.1759 107.568C73.3537 108.661 73.3003 109.807 73.2233 110.917C73.1226 112.422 72.4708 113.694 71.2562 114.625C69.8934 115.676 69.3187 117.097 69.1824 118.786C69.0816 120.064 68.898 121.347 68.6728 122.607C68.264 124.888 66.676 126.255 64.3534 126.339C61.2605 126.446 58.7897 125.127 56.8107 122.816C54.1918 119.759 52.8942 116.052 51.8099 112.249C51.1522 109.938 50.5952 107.58 49.7538 105.335C48.4148 101.747 46.3528 100.511 42.5489 100.696C41.115 100.768 39.6811 100.887 38.2472 100.917C31.8422 101.048 27.6946 94.5944 28.6663 88.833C28.844 87.7763 29.478 86.7255 30.1179 85.8299C31.5222 83.8657 32.8316 81.8716 33.5308 79.5193C33.9456 78.1282 34.9943 77.4595 36.363 77.2744C36.6178 77.2386 36.9022 77.4237 37.7495 77.6864C35.0358 78.5521 34.4551 80.4924 33.6967 82.4149C33.1753 83.7284 32.2806 84.9403 31.3741 86.0389C29.1284 88.7554 29.2825 91.663 30.6156 94.6123C31.9192 97.502 34.1411 99.3647 37.3822 99.6692C38.5672 99.7826 39.77 99.6393 40.9669 99.6035C41.8438 99.5737 42.7207 99.4602 43.5917 99.496C47.3305 99.6334 49.7064 101.329 50.9211 104.965C51.9639 108.081 52.7283 111.287 53.7415 114.41C54.7902 117.628 56.1471 120.685 58.7364 123.043C60.3835 124.542 62.2559 125.163 64.4245 125.031C66.1606 124.924 67.0493 124.207 67.4582 122.518C67.6063 121.897 67.6952 121.252 67.7307 120.607C67.9203 117.538 68.8269 114.894 71.2147 112.726C71.9968 112.016 72.0205 110.398 72.2634 109.168C72.3642 108.649 72.1331 108.063 72.0501 107.502C71.6472 104.834 72.0738 102.451 73.958 100.344C75.3386 98.7975 76.4881 97.0422 77.6494 95.3168C78.0819 94.678 78.4019 93.878 78.5145 93.1138C78.7337 91.5853 77.839 90.6778 76.3103 90.6719C76.1503 90.6719 75.9904 90.7077 75.8363 90.7196C72.1686 90.9883 70.6103 90.1286 69.0224 86.821C68.0862 84.8687 67.2567 82.8686 66.3739 80.8865C64.8096 77.37 63.3639 76.546 59.6429 77.0714C58.9319 77.1729 58.2149 77.2685 57.5217 77.4595C55.0687 78.1401 52.6275 78.2058 50.216 77.352C47.68 76.4565 45.1263 76.0744 42.4541 76.5938C41.8912 76.6953 41.269 76.5998 40.6588 76.5998Z" fill="#429777"/>
<path id="Vector_4" d="M68.6431 181.756C68.5898 182.263 68.5305 182.801 68.4002 183.995C67.6655 181.308 65.7339 182.538 64.3711 182.221C64.3889 182.054 64.4007 181.881 64.4185 181.714C65.088 181.374 65.7576 181.027 66.5575 180.615C66.7412 178.591 65.645 176.49 66.5338 173.941C68.021 176.09 66.7886 178.669 68.5187 180.526C72.1034 179.738 75.8125 178.914 79.5217 178.102C83.3375 177.266 87.1592 176.472 90.9631 175.6C94.6841 174.753 98.3873 173.815 102.102 172.944C105.823 172.072 109.55 171.218 113.283 170.388C117.093 169.54 120.891 168.639 124.725 167.928C128.386 167.248 131.965 165.97 135.793 166.31C130.377 168.096 124.778 169.039 119.25 170.299C113.585 171.588 107.921 172.914 102.256 174.215C96.669 175.499 91.0875 176.794 85.4942 178.048C79.9127 179.302 74.3194 180.508 68.6431 181.756Z" fill="#429777"/>
<path id="Vector_5" d="M115.35 141.067C118.941 138.697 122.384 136.422 126.063 133.992C125.216 135.795 124.374 136.595 121.453 138.518C119.664 139.694 117.875 140.87 116.008 142.1C116.938 143.79 117.792 145.33 118.787 147.145C117.063 147.139 117.009 145.933 116.476 145.27C115.878 144.53 115.374 143.718 114.746 142.822C109.135 145.533 103.583 148.243 97.3262 149.79C97.5928 148.315 98.5882 148.363 99.317 148.064C103.151 146.5 106.996 144.966 110.818 143.366C111.831 142.942 112.773 142.327 113.893 141.724C112.809 139.891 111.778 138.148 110.741 136.404C112.903 137.228 113.638 139.36 115.35 141.067Z" fill="#429777"/>
<path id="Vector_6" d="M121.399 75.8594C123.082 75.9131 124.474 76.4564 125.79 77.2803C126.916 77.9848 127.407 79.155 127.354 80.3491C127.324 80.964 126.613 81.8655 126.015 82.0745C123.603 82.9104 121.109 83.5969 118.561 82.576C117.915 82.3193 117.246 81.9611 116.778 81.4655C115.249 79.8655 115.45 78.1639 117.394 77.1609C118.632 76.5281 120.06 76.2773 121.399 75.8594ZM126.554 80.7073C125.28 77.4773 122.11 76.3609 118.774 77.7818C117.945 78.1341 116.955 78.5938 117.169 79.561C117.329 80.2834 118.117 80.97 118.786 81.4357C119.26 81.77 120.001 81.782 120.629 81.8118C122.632 81.9133 124.575 81.5849 126.554 80.7073Z" fill="#429777"/>
<path id="Vector_7" d="M25.1886 55.9776C24.6613 56.2343 24.0806 56.4194 23.6126 56.7597C22.7238 57.3985 21.7402 57.9956 21.0707 58.8374C20.2115 59.918 20.4959 61.5658 21.3788 62.0554C22.6586 62.7599 24.3828 62.0912 24.8865 60.6344C25.1472 59.8881 25.2716 59.0941 25.4849 58.2165C26.3203 59.8583 26.2789 60.9927 25.4079 62.1509C24.5191 63.339 23.0082 63.8704 21.5743 63.5002C20.413 63.2017 19.5242 61.9658 19.4413 60.6106C19.2872 57.906 22.2735 54.9029 25.1886 55.9776Z" fill="#429777"/>
</g>
<defs>
<clipPath id="clip0_6612_36429">
<rect width="145" height="184" fill="white"/>
</clipPath>
</defs>
</svg>
