<svg width="16" height="16" viewBox="0 0 16 16" fill="none" xmlns="http://www.w3.org/2000/svg">
<path fill-rule="evenodd" clip-rule="evenodd" d="M13.9902 6.99023H4.41023L7.70023 3.70023C7.88023 3.52023 7.99023 3.27023 7.99023 2.99023C7.99023 2.44023 7.54023 1.99023 6.99023 1.99023C6.71023 1.99023 6.46023 2.10023 6.28023 2.28023L1.28023 7.28023C1.10023 7.47023 0.990234 7.72023 0.990234 7.99023C0.990234 8.26023 1.10023 8.52023 1.28023 8.70023L6.28023 13.7002C6.46023 13.8802 6.71023 13.9902 6.99023 13.9902C7.54023 13.9902 7.99023 13.5402 7.99023 12.9902C7.99023 12.7102 7.88023 12.4602 7.70023 12.2802L4.41023 8.99023H14.0002C14.5502 8.99023 15.0002 8.54023 15.0002 7.99023C15.0002 7.44023 14.5402 6.99023 13.9902 6.99023Z" fill="#429777"/>
</svg>
