<svg width="101" height="101" viewBox="0 0 101 101" fill="none" xmlns="http://www.w3.org/2000/svg">
<g id="Atom">
<path id="Vector" opacity="0.2" d="M82.5482 82.5408C89.2603 75.8287 80.3564 56.0423 62.6608 38.3467C44.9652 20.651 25.1788 11.7471 18.4666 18.4593C11.7545 25.1714 20.6584 44.9578 38.354 62.6534C56.0496 80.3491 75.836 89.253 82.5482 82.5408Z" fill="#101840"/>
<path id="Vector_2" d="M82.5482 82.5408C89.2603 75.8287 80.3564 56.0423 62.6608 38.3467C44.9652 20.651 25.1788 11.7471 18.4666 18.4593C11.7545 25.1714 20.6584 44.9578 38.354 62.6534C56.0496 80.3491 75.836 89.253 82.5482 82.5408Z" stroke="#101840" stroke-width="2.5" stroke-linecap="round" stroke-linejoin="round"/>
<path id="Vector_3" d="M62.6608 62.6533C80.3564 44.9577 89.2603 25.1713 82.5482 18.4592C75.836 11.747 56.0496 20.6509 38.354 38.3466C20.6584 56.0422 11.7545 75.8286 18.4666 82.5407C25.1788 89.2529 44.9652 80.349 62.6608 62.6533Z" stroke="#101840" stroke-width="2.5" stroke-linecap="round" stroke-linejoin="round"/>
<path id="Vector_4" d="M50.5 55.1875C53.0888 55.1875 55.1875 53.0888 55.1875 50.5C55.1875 47.9112 53.0888 45.8125 50.5 45.8125C47.9112 45.8125 45.8125 47.9112 45.8125 50.5C45.8125 53.0888 47.9112 55.1875 50.5 55.1875Z" fill="#101840"/>
</g>
</svg>
