<svg width="101" height="101" viewBox="0 0 101 101" fill="none" xmlns="http://www.w3.org/2000/svg">
<g id="Calculator">
<path id="Vector" opacity="0.2" d="M69.25 25.5H31.75V44.25H69.25V25.5Z" fill="#101840"/>
<path id="Vector_2" d="M69.25 25.5H31.75V44.25H69.25V25.5Z" stroke="#101840" stroke-width="2.5" stroke-linecap="round" stroke-linejoin="round"/>
<path id="Vector_3" d="M81.75 84.875V16.125C81.75 14.3991 80.3509 13 78.625 13L22.375 13C20.6491 13 19.25 14.3991 19.25 16.125L19.25 84.875C19.25 86.6009 20.6491 88 22.375 88H78.625C80.3509 88 81.75 86.6009 81.75 84.875Z" stroke="#101840" stroke-width="2.5" stroke-linecap="round" stroke-linejoin="round"/>
<path id="Vector_4" d="M34.875 63C37.4638 63 39.5625 60.9013 39.5625 58.3125C39.5625 55.7237 37.4638 53.625 34.875 53.625C32.2862 53.625 30.1875 55.7237 30.1875 58.3125C30.1875 60.9013 32.2862 63 34.875 63Z" fill="#101840"/>
<path id="Vector_5" d="M50.5 63C53.0888 63 55.1875 60.9013 55.1875 58.3125C55.1875 55.7237 53.0888 53.625 50.5 53.625C47.9112 53.625 45.8125 55.7237 45.8125 58.3125C45.8125 60.9013 47.9112 63 50.5 63Z" fill="#101840"/>
<path id="Vector_6" d="M66.125 63C68.7138 63 70.8125 60.9013 70.8125 58.3125C70.8125 55.7237 68.7138 53.625 66.125 53.625C63.5362 53.625 61.4375 55.7237 61.4375 58.3125C61.4375 60.9013 63.5362 63 66.125 63Z" fill="#101840"/>
<path id="Vector_7" d="M34.875 78.625C37.4638 78.625 39.5625 76.5263 39.5625 73.9375C39.5625 71.3487 37.4638 69.25 34.875 69.25C32.2862 69.25 30.1875 71.3487 30.1875 73.9375C30.1875 76.5263 32.2862 78.625 34.875 78.625Z" fill="#101840"/>
<path id="Vector_8" d="M50.5 78.625C53.0888 78.625 55.1875 76.5263 55.1875 73.9375C55.1875 71.3487 53.0888 69.25 50.5 69.25C47.9112 69.25 45.8125 71.3487 45.8125 73.9375C45.8125 76.5263 47.9112 78.625 50.5 78.625Z" fill="#101840"/>
<path id="Vector_9" d="M66.125 78.625C68.7138 78.625 70.8125 76.5263 70.8125 73.9375C70.8125 71.3487 68.7138 69.25 66.125 69.25C63.5362 69.25 61.4375 71.3487 61.4375 73.9375C61.4375 76.5263 63.5362 78.625 66.125 78.625Z" fill="#101840"/>
</g>
</svg>
