<svg width="101" height="101" viewBox="0 0 101 101" fill="none" xmlns="http://www.w3.org/2000/svg">
<g id="DesktopTower">
<path id="Vector" opacity="0.2" d="M91.125 16.125H59.875C58.1491 16.125 56.75 17.5241 56.75 19.25V81.75C56.75 83.4759 58.1491 84.875 59.875 84.875H91.125C92.8509 84.875 94.25 83.4759 94.25 81.75V19.25C94.25 17.5241 92.8509 16.125 91.125 16.125Z" fill="#101840"/>
<path id="Vector_2" d="M44.25 72.375H13C11.3424 72.375 9.75268 71.7165 8.58058 70.5444C7.40848 69.3723 6.75 67.7826 6.75 66.125V38C6.75 36.3424 7.40848 34.7527 8.58058 33.5806C9.75268 32.4085 11.3424 31.75 13 31.75H44.25" stroke="#101840" stroke-width="2.5" stroke-linecap="round" stroke-linejoin="round"/>
<path id="Vector_3" d="M44.25 84.875H25.5" stroke="#101840" stroke-width="2.5" stroke-linecap="round" stroke-linejoin="round"/>
<path id="Vector_4" d="M81.75 28.625H69.25" stroke="#101840" stroke-width="2.5" stroke-linecap="round" stroke-linejoin="round"/>
<path id="Vector_5" d="M81.75 41.125H69.25" stroke="#101840" stroke-width="2.5" stroke-linecap="round" stroke-linejoin="round"/>
<path id="Vector_6" d="M91.125 16.125H59.875C58.1491 16.125 56.75 17.5241 56.75 19.25V81.75C56.75 83.4759 58.1491 84.875 59.875 84.875H91.125C92.8509 84.875 94.25 83.4759 94.25 81.75V19.25C94.25 17.5241 92.8509 16.125 91.125 16.125Z" stroke="#101840" stroke-width="2.5" stroke-linecap="round" stroke-linejoin="round"/>
<path id="Vector_7" d="M34.875 72.375V84.875" stroke="#101840" stroke-width="2.5" stroke-linecap="round" stroke-linejoin="round"/>
<path id="Vector_8" d="M75.5 75.5C78.0888 75.5 80.1875 73.4013 80.1875 70.8125C80.1875 68.2237 78.0888 66.125 75.5 66.125C72.9112 66.125 70.8125 68.2237 70.8125 70.8125C70.8125 73.4013 72.9112 75.5 75.5 75.5Z" fill="#101840"/>
</g>
</svg>
