<svg width="101" height="101" viewBox="0 0 101 101" fill="none" xmlns="http://www.w3.org/2000/svg">
<g id="FileCode">
<path id="Vector" opacity="0.2" d="M59.875 13V34.875H81.75L59.875 13Z" fill="#101840"/>
<path id="Vector_2" d="M59.875 13V34.875H81.75" stroke="#101840" stroke-width="2.5" stroke-linecap="round" stroke-linejoin="round"/>
<path id="Vector_3" d="M58.3125 50.5L67.6875 59.875L58.3125 69.25" stroke="#101840" stroke-width="2.5" stroke-linecap="round" stroke-linejoin="round"/>
<path id="Vector_4" d="M42.6875 50.5L33.3125 59.875L42.6875 69.25" stroke="#101840" stroke-width="2.5" stroke-linecap="round" stroke-linejoin="round"/>
<path id="Vector_5" d="M79.125 88.5C79.9538 88.5 80.7487 88.1708 81.3347 87.5847C81.9208 86.9987 82.25 86.2038 82.25 85.375V35.375L60.375 13.5H22.875C22.0462 13.5 21.2513 13.8292 20.6653 14.4153C20.0792 15.0013 19.75 15.7962 19.75 16.625V85.375C19.75 86.2038 20.0792 86.9987 20.6653 87.5847C21.2513 88.1708 22.0462 88.5 22.875 88.5H79.125Z" stroke="#101840" stroke-width="2.5" stroke-linecap="round" stroke-linejoin="round"/>
</g>
</svg>
