<svg width="101" height="101" viewBox="0 0 101 101" fill="none" xmlns="http://www.w3.org/2000/svg">
<g id="FilmStrip">
<path id="Vector" opacity="0.2" d="M13 69.25H88V78.625C88 79.4538 87.6708 80.2487 87.0847 80.8347C86.4987 81.4208 85.7038 81.75 84.875 81.75H16.125C15.2962 81.75 14.5013 81.4208 13.9153 80.8347C13.3292 80.2487 13 79.4538 13 78.625V69.25Z" fill="#101840"/>
<path id="Vector_2" opacity="0.2" d="M88 31.75H13V22.375C13 21.5462 13.3292 20.7513 13.9153 20.1653C14.5013 19.5792 15.2962 19.25 16.125 19.25H84.875C85.7038 19.25 86.4987 19.5792 87.0847 20.1653C87.6708 20.7513 88 21.5462 88 22.375V31.75Z" fill="#101840"/>
<path id="Vector_3" d="M84.875 19.25H16.125C14.3991 19.25 13 20.6491 13 22.375V78.625C13 80.3509 14.3991 81.75 16.125 81.75H84.875C86.6009 81.75 88 80.3509 88 78.625V22.375C88 20.6491 86.6009 19.25 84.875 19.25Z" stroke="#101840" stroke-width="2.5" stroke-linecap="round" stroke-linejoin="round"/>
<path id="Vector_4" d="M50.5 19.25V81.75" stroke="#101840" stroke-width="2.5" stroke-linecap="round" stroke-linejoin="round"/>
<path id="Vector_5" d="M13 31.75H88" stroke="#101840" stroke-width="2.5" stroke-linecap="round" stroke-linejoin="round"/>
<path id="Vector_6" d="M13 69.25H88" stroke="#101840" stroke-width="2.5" stroke-linecap="round" stroke-linejoin="round"/>
<path id="Vector_7" d="M31.75 19.25V31.75" stroke="#101840" stroke-width="2.5" stroke-linecap="round" stroke-linejoin="round"/>
<path id="Vector_8" d="M69.25 19.25V31.75" stroke="#101840" stroke-width="2.5" stroke-linecap="round" stroke-linejoin="round"/>
<path id="Vector_9" d="M31.75 69.25V81.75" stroke="#101840" stroke-width="2.5" stroke-linecap="round" stroke-linejoin="round"/>
<path id="Vector_10" d="M69.25 69.25V81.75" stroke="#101840" stroke-width="2.5" stroke-linecap="round" stroke-linejoin="round"/>
</g>
</svg>
