<svg width="101" height="101" viewBox="0 0 101 101" fill="none" xmlns="http://www.w3.org/2000/svg">
<g id="Palette">
<path id="Vector" opacity="0.2" d="M87.0624 58.8596C87.7105 56.0152 88.0251 53.1049 87.9999 50.1877C87.8437 29.5237 70.7343 12.8049 50.1093 13.0002C41.2981 13.0931 32.8011 16.2859 26.1089 22.0184C19.4168 27.7509 14.9571 35.6569 13.5123 44.3493C12.0674 53.0417 13.7297 61.9653 18.2075 69.5544C22.6853 77.1435 29.6926 82.9134 37.9999 85.8518C39.4131 86.3609 40.9282 86.5215 42.4166 86.3199C43.9051 86.1184 45.323 85.5608 46.5499 84.6943C47.7768 83.8278 48.7765 82.678 49.4641 81.3426C50.1518 80.0073 50.5071 78.5257 50.4999 77.0237V75.5002C50.4948 74.2676 50.7337 73.0462 51.203 71.9065C51.6723 70.7667 52.3627 69.7312 53.2343 68.8596C54.1059 67.988 55.1414 67.2976 56.2812 66.8283C57.4209 66.359 58.6423 66.1201 59.8749 66.1252H77.9218C80.0426 66.1266 82.1012 65.4088 83.7614 64.0892C85.4216 62.7696 86.5853 60.926 87.0624 58.8596Z" fill="#101840"/>
<path id="Vector_2" d="M87.0624 58.8596C87.7105 56.0152 88.0251 53.1049 87.9999 50.1877C87.8437 29.5237 70.7343 12.8049 50.1093 13.0002C41.2981 13.0931 32.8011 16.2859 26.1089 22.0184C19.4168 27.7509 14.9571 35.6569 13.5123 44.3493C12.0674 53.0417 13.7297 61.9653 18.2075 69.5544C22.6853 77.1435 29.6926 82.9134 37.9999 85.8518C39.4131 86.3609 40.9282 86.5215 42.4166 86.3199C43.9051 86.1184 45.3229 85.5608 46.5499 84.6943C47.7768 83.8278 48.7765 82.678 49.4641 81.3426C50.1518 80.0073 50.5071 78.5257 50.4999 77.0237V75.5002C50.4948 74.2676 50.7337 73.0462 51.203 71.9065C51.6723 70.7667 52.3627 69.7312 53.2343 68.8596C54.1059 67.988 55.1414 67.2976 56.2812 66.8283C57.4209 66.359 58.6423 66.1201 59.8749 66.1252H77.9218C80.0426 66.1266 82.1012 65.4088 83.7613 64.0892C85.4215 62.7696 86.5853 60.926 87.0624 58.8596V58.8596Z" stroke="#101840" stroke-width="2.5" stroke-linecap="round" stroke-linejoin="round"/>
<path id="Vector_3" d="M50.5 34.875C53.0888 34.875 55.1875 32.7763 55.1875 30.1875C55.1875 27.5987 53.0888 25.5 50.5 25.5C47.9112 25.5 45.8125 27.5987 45.8125 30.1875C45.8125 32.7763 47.9112 34.875 50.5 34.875Z" fill="#101840"/>
<path id="Vector_4" d="M32.9219 45.0312C35.5107 45.0312 37.6094 42.9326 37.6094 40.3438C37.6094 37.7549 35.5107 35.6562 32.9219 35.6562C30.333 35.6562 28.2344 37.7549 28.2344 40.3438C28.2344 42.9326 30.333 45.0312 32.9219 45.0312Z" fill="#101840"/>
<path id="Vector_5" d="M32.9219 65.3438C35.5107 65.3438 37.6094 63.2451 37.6094 60.6562C37.6094 58.0674 35.5107 55.9688 32.9219 55.9688C30.333 55.9688 28.2344 58.0674 28.2344 60.6562C28.2344 63.2451 30.333 65.3438 32.9219 65.3438Z" fill="#101840"/>
<path id="Vector_6" d="M68.0781 45.0312C70.667 45.0312 72.7656 42.9326 72.7656 40.3438C72.7656 37.7549 70.667 35.6562 68.0781 35.6562C65.4893 35.6562 63.3906 37.7549 63.3906 40.3438C63.3906 42.9326 65.4893 45.0312 68.0781 45.0312Z" fill="#101840"/>
</g>
</svg>
