<svg width="20" height="20" viewBox="0 0 20 20" fill="none" xmlns="http://www.w3.org/2000/svg">
<g id="Frame">
<path id="Vector" d="M17.5 10C17.5 10.9849 17.306 11.9602 16.9291 12.8701C16.5522 13.7801 15.9997 14.6069 15.3033 15.3033C14.6069 15.9997 13.7801 16.5522 12.8701 16.9291C11.9602 17.306 10.9849 17.5 10 17.5C9.01509 17.5 8.03982 17.306 7.12987 16.9291C6.21993 16.5522 5.39314 15.9997 4.6967 15.3033C4.00026 14.6069 3.44781 13.7801 3.0709 12.8701C2.69399 11.9602 2.5 10.9849 2.5 10C2.5 8.01088 3.29018 6.10322 4.6967 4.6967C6.10322 3.29018 8.01088 2.5 10 2.5C11.9891 2.5 13.8968 3.29018 15.3033 4.6967C16.7098 6.10322 17.5 8.01088 17.5 10Z" stroke="#52BD94" stroke-width="1.5" stroke-linecap="round" stroke-linejoin="round"/>
<path id="Vector_2" d="M13.2583 9.72701C13.3071 9.75405 13.3478 9.79366 13.3761 9.84172C13.4044 9.88979 13.4194 9.94456 13.4194 10.0003C13.4194 10.0561 13.4044 10.1109 13.3761 10.159C13.3478 10.207 13.3071 10.2466 13.2583 10.2737L8.58917 12.8678C8.54159 12.8943 8.48794 12.9078 8.43352 12.9071C8.37911 12.9064 8.32582 12.8915 8.27893 12.8639C8.23204 12.8363 8.19317 12.7969 8.16617 12.7497C8.13917 12.7024 8.12498 12.6489 8.125 12.5945V7.40618C8.125 7.16784 8.38083 7.01784 8.58917 7.13368L13.2583 9.72701Z" stroke="#52BD94" stroke-width="1.5" stroke-linecap="round" stroke-linejoin="round"/>
</g>
</svg>
