<svg width="101" height="101" viewBox="0 0 101 101" fill="none" xmlns="http://www.w3.org/2000/svg">
<g id="PresentationChart">
<path id="Vector" opacity="0.2" d="M84.875 19.25H16.125C14.3991 19.25 13 20.6491 13 22.375V69.25C13 70.9759 14.3991 72.375 16.125 72.375H84.875C86.6009 72.375 88 70.9759 88 69.25V22.375C88 20.6491 86.6009 19.25 84.875 19.25Z" fill="#101840"/>
<path id="Vector_2" d="M84.875 19.25H16.125C14.3991 19.25 13 20.6491 13 22.375V69.25C13 70.9759 14.3991 72.375 16.125 72.375H84.875C86.6009 72.375 88 70.9759 88 69.25V22.375C88 20.6491 86.6009 19.25 84.875 19.25Z" stroke="#101840" stroke-width="2.5" stroke-linecap="round" stroke-linejoin="round"/>
<path id="Vector_3" d="M63 72.375L75.5 88" stroke="#101840" stroke-width="2.5" stroke-linecap="round" stroke-linejoin="round"/>
<path id="Vector_4" d="M38 72.375L25.5 88" stroke="#101840" stroke-width="2.5" stroke-linecap="round" stroke-linejoin="round"/>
<path id="Vector_5" d="M38 47.375V56.75" stroke="#101840" stroke-width="2.5" stroke-linecap="round" stroke-linejoin="round"/>
<path id="Vector_6" d="M50.5 41.125V56.75" stroke="#101840" stroke-width="2.5" stroke-linecap="round" stroke-linejoin="round"/>
<path id="Vector_7" d="M63 34.875V56.75" stroke="#101840" stroke-width="2.5" stroke-linecap="round" stroke-linejoin="round"/>
<path id="Vector_8" d="M50.5 19.25V9.875" stroke="#101840" stroke-width="2.5" stroke-linecap="round" stroke-linejoin="round"/>
</g>
</svg>
