<svg width="16" height="16" viewBox="0 0 16 16" fill="none" xmlns="http://www.w3.org/2000/svg">
<g id="ShoppingCart">
<path id="Vector" d="M11.5 11.5H4.3625L2.61875 1.9125C2.59835 1.79768 2.53845 1.69361 2.44943 1.61828C2.36041 1.54296 2.24786 1.50112 2.13125 1.5H1" stroke="white" stroke-linecap="round" stroke-linejoin="round"/>
<path id="Vector_2" d="M5 14C5.69036 14 6.25 13.4404 6.25 12.75C6.25 12.0596 5.69036 11.5 5 11.5C4.30964 11.5 3.75 12.0596 3.75 12.75C3.75 13.4404 4.30964 14 5 14Z" stroke="white" stroke-linecap="round" stroke-linejoin="round"/>
<path id="Vector_3" d="M11.5 14C12.1904 14 12.75 13.4404 12.75 12.75C12.75 12.0596 12.1904 11.5 11.5 11.5C10.8096 11.5 10.25 12.0596 10.25 12.75C10.25 13.4404 10.8096 14 11.5 14Z" stroke="white" stroke-linecap="round" stroke-linejoin="round"/>
<path id="Vector_4" d="M3.90625 9H11.7563C11.99 9.00071 12.2165 8.91902 12.3959 8.76928C12.5754 8.61953 12.6963 8.41133 12.7375 8.18125L13.5 4H3" stroke="white" stroke-linecap="round" stroke-linejoin="round"/>
</g>
</svg>
