<svg width="24" height="24" viewBox="0 0 24 24" fill="none" xmlns="http://www.w3.org/2000/svg">
<g id="Student">
<path id="Vector" d="M3 6V13.5" stroke="#101840" stroke-width="2" stroke-linecap="round" stroke-linejoin="round"/>
<path id="Vector_2" d="M5.08008 20.2504C5.83051 19.0994 6.85624 18.1538 8.06436 17.4993C9.27247 16.8447 10.6248 16.502 11.9988 16.502C13.3729 16.502 14.7252 16.8447 15.9333 17.4993C17.1414 18.1538 18.1671 19.0994 18.9176 20.2504" stroke="#101840" stroke-width="2" stroke-linecap="round" stroke-linejoin="round"/>
<path id="Vector_3" d="M21 6L12 9L3 6L12 3L21 6Z" stroke="#101840" stroke-width="2" stroke-linecap="round" stroke-linejoin="round"/>
<path id="Vector_4" d="M15.8719 7.70703C16.5599 8.45832 17.0144 9.39355 17.1801 10.3987C17.3458 11.4038 17.2155 12.4355 16.805 13.3678C16.3946 14.3002 15.7218 15.093 14.8686 15.6496C14.0154 16.2062 13.0187 16.5026 12 16.5026C10.9813 16.5026 9.9846 16.2062 9.13141 15.6496C8.27822 15.093 7.6054 14.3002 7.19497 13.3678C6.78453 12.4355 6.65422 11.4038 6.81991 10.3987C6.98561 9.39355 7.44015 8.45832 8.12813 7.70703" stroke="#101840" stroke-width="2" stroke-linecap="round" stroke-linejoin="round"/>
</g>
</svg>
