<svg width="23" height="22" viewBox="0 0 23 22" fill="none" xmlns="http://www.w3.org/2000/svg">
<path fill-rule="evenodd" clip-rule="evenodd" d="M8.74935 10.9993C10.7752 10.9993 12.416 9.35852 12.416 7.33268C12.416 5.30685 10.7752 3.66602 8.74935 3.66602C6.72352 3.66602 5.08268 5.30685 5.08268 7.33268C5.08268 9.35852 6.72352 10.9993 8.74935 10.9993ZM8.74935 5.49935C9.75768 5.49935 10.5827 6.32435 10.5827 7.33268C10.5827 8.34102 9.75768 9.16602 8.74935 9.16602C7.74102 9.16602 6.91602 8.34102 6.91602 7.33268C6.91602 6.32435 7.74102 5.49935 8.74935 5.49935ZM17.9159 7.33268C17.9159 9.35852 16.2751 10.9993 14.2493 10.9993C13.8184 10.9993 13.4151 10.9077 13.0301 10.7793C13.7909 9.83518 14.2493 8.63435 14.2493 7.33268C14.2493 6.03102 13.7909 4.83018 13.0301 3.88602C13.4151 3.75768 13.8184 3.66602 14.2493 3.66602C16.2751 3.66602 17.9159 5.30685 17.9159 7.33268ZM17.9159 15.5827C17.9159 14.0427 17.0359 12.8877 15.7801 12.0352C18.3101 12.4018 21.5826 13.5843 21.5826 15.5827V18.3327H17.9159V15.5827ZM1.41602 15.5827C1.41602 13.1443 6.30185 11.916 8.74935 11.916C11.1968 11.916 16.0827 13.1443 16.0827 15.5827V18.3327H1.41602V15.5827ZM3.24935 15.5918V16.4993H14.2493V15.5827C14.066 14.9318 11.2243 13.7493 8.74935 13.7493C6.27435 13.7493 3.43268 14.9318 3.24935 15.5918Z" fill="#474D66"/>
</svg>
